<svg width="80" height="80" viewBox="0 0 80 80" fill="none" xmlns="http://www.w3.org/2000/svg">
<g clip-path="url(#clip0_287_710)">
<path d="M50.8503 19.8421C50.8503 19.8421 49.5882 11.4858 57.7877 11.2971C64.2528 11.1483 70.6594 15.1255 73.3371 20.1355C73.7109 20.8348 73.4551 21.7057 72.7582 22.0837C68.4051 24.445 53.3008 31.6779 50.8503 19.8421Z" fill="#8DC57F"/>
<path d="M59.5294 17.3909C59.5294 17.3909 50.9602 19.4775 46.0247 28.6575C41.1814 37.666 41.2223 46.1386 41.2223 46.1386H36.4033C36.4033 46.1386 36.3595 34.621 41.2223 26.3636C46.0852 18.1061 53.6654 16.1037 59.5294 17.3909Z" fill="#489634"/>
<path d="M29.2029 29.1498C29.2029 29.1498 31.0958 20.9135 22.9342 20.1029C16.4992 19.4636 9.80909 22.943 6.75851 27.7352C6.33287 28.4039 6.52163 29.2918 7.1879 29.7217C11.3493 32.4066 25.8607 40.7653 29.2029 29.1498Z" fill="#8DC57F"/>
<path d="M20.7348 26.0467C20.7348 26.0467 29.1209 28.778 33.3451 38.3062C37.4904 47.6563 38.3078 47.3117 38.3078 47.3117H40.5016C40.5016 47.3117 42.5296 44.9864 38.3078 36.3836C34.0859 27.7803 26.6795 25.2084 20.7348 26.0467Z" fill="#489634"/>
<path d="M70.3975 23.2794C71.1942 22.903 71.9805 22.5049 72.7554 22.0853C73.4538 21.7065 73.7118 20.8362 73.3373 20.1355C70.6592 15.1255 64.2526 11.1485 57.7877 11.2973C56.8595 11.3187 56.0537 11.4454 55.3526 11.6521C61.8055 12.7571 68.0174 17.7154 70.3975 23.2794ZM22.9342 20.1027C21.6209 19.9722 20.2971 20.0137 18.9957 20.2024C26.2892 21.4296 24.5152 29.1496 24.5152 29.1496C23.5102 32.6424 21.4951 34.3288 19.0554 34.9068C23.4246 35.6972 27.5994 34.7228 29.2029 29.1496C29.2029 29.1498 31.0958 20.9134 22.9342 20.1027Z" fill="#26890C"/>
<path d="M18.8628 64.4578C19.51 64.4578 20.0347 63.9331 20.0347 63.2859C20.0347 62.6387 19.51 62.114 18.8628 62.114C18.2156 62.114 17.6909 62.6387 17.6909 63.2859C17.6909 63.9331 18.2156 64.4578 18.8628 64.4578Z" fill="#001E1D"/>
<path d="M44.4288 57.639C45.076 57.639 45.6007 57.1143 45.6007 56.4671C45.6007 55.8199 45.076 55.2952 44.4288 55.2952C43.7816 55.2952 43.257 55.8199 43.257 56.4671C43.257 57.1143 43.7816 57.639 44.4288 57.639Z" fill="#001E1D"/>
<path d="M58.3575 64.4578C59.0047 64.4578 59.5293 63.9331 59.5293 63.2859C59.5293 62.6387 59.0047 62.114 58.3575 62.114C57.7102 62.114 57.1856 62.6387 57.1856 63.2859C57.1856 63.9331 57.7102 64.4578 58.3575 64.4578Z" fill="#001E1D"/>
<path d="M34.6862 63.2859C35.3334 63.2859 35.858 62.7612 35.858 62.114C35.858 61.4668 35.3334 60.9421 34.6862 60.9421C34.0389 60.9421 33.5143 61.4668 33.5143 62.114C33.5143 62.7612 34.0389 63.2859 34.6862 63.2859Z" fill="#001E1D"/>
<path d="M79.8378 66.3048C78.6114 62.9478 75.3861 60.6924 71.8116 60.6924C70.6084 60.6924 69.4292 60.9445 68.3423 61.4282C66.4134 58.0116 62.7935 55.8649 58.8007 55.8649C57.5691 55.8649 56.3734 56.0646 55.2304 56.4599C53.2191 50.8785 48.2373 46.8862 42.3943 46.0927C42.4006 45.4658 42.574 37.5505 47.0567 29.2126C48.2517 26.9897 49.6786 25.2037 51.1379 23.7758C52.1615 25.3842 53.61 26.5019 55.4599 27.1011C56.5497 27.4541 57.7261 27.6052 58.9426 27.605C64.352 27.6049 70.5437 24.6176 73.3118 23.1166C74.5717 22.4334 75.0467 20.8484 74.3703 19.5832C71.3599 13.9509 64.3795 9.97111 57.7602 10.1255C53.1955 10.2305 50.2752 12.7864 49.7071 17.1493C46.2404 18.5708 42.8584 21.2754 40.2121 25.7689C39.0734 27.7025 38.1103 29.9495 37.337 32.4667C35.3503 29.6942 32.997 27.781 30.5456 26.5511C30.5453 26.5347 30.5462 26.5184 30.5452 26.5017C30.4383 24.6723 29.9054 23.1183 28.9618 21.8831C27.6677 20.189 25.6784 19.1975 23.0494 18.9364C19.7412 18.6078 16.2914 19.2611 13.0703 20.8251C12.9309 20.8917 12.8059 20.9852 12.7028 21.1002C12.5996 21.2153 12.5202 21.3496 12.4691 21.4954C12.4181 21.6413 12.3963 21.7958 12.4052 21.9501C12.4141 22.1044 12.4535 22.2554 12.5209 22.3944C12.5884 22.5334 12.6827 22.6577 12.7984 22.7602C12.9142 22.8626 13.049 22.9411 13.1952 22.9912C13.3414 23.0414 13.496 23.0621 13.6502 23.0522C13.8045 23.0423 13.9552 23.002 14.0938 22.9336C16.8848 21.5784 19.9835 20.9871 22.8177 21.2689C25.7983 21.565 27.559 23.0006 28.0669 25.5409C25.4743 24.7129 22.8738 24.5615 20.5704 24.8862C20.3087 24.9232 20.0672 25.0477 19.8852 25.2395C19.7032 25.4312 19.5914 25.6788 19.568 25.9421C19.5446 26.2057 19.611 26.4694 19.7563 26.6905C19.9017 26.9116 20.1175 27.0771 20.3687 27.1602C20.4189 27.1767 23.6157 28.2697 26.953 31.3459C26.1077 32.6158 24.9696 33.4096 23.4838 33.7643C22.8708 33.9107 22.2231 33.9766 21.552 33.9766C16.39 33.9763 9.8852 30.0674 7.82669 28.7397C7.69981 28.6579 7.66481 28.4929 7.74669 28.3641C8.37421 27.3783 9.17705 26.4422 10.1332 25.5814C10.3642 25.3734 10.5031 25.0822 10.5194 24.7718C10.5356 24.4614 10.428 24.1572 10.22 23.9262C10.012 23.6952 9.72079 23.5563 9.41039 23.54C9.09999 23.5237 8.79584 23.6314 8.56485 23.8394C7.45137 24.842 6.51071 25.9407 5.76928 27.1055C4.99878 28.316 5.35192 29.9328 6.55618 30.7093C9.3705 32.5247 15.9273 36.3164 21.5764 36.3163C22.4188 36.3163 23.2413 36.2319 24.0279 36.0441C25.9297 35.59 27.4679 34.5834 28.616 33.0504C29.9628 34.5849 31.2497 36.4741 32.2726 38.7812C33.4063 41.3386 34.2703 44.0689 34.85 46.9005C30.2698 48.5664 26.5917 52.2857 25.0792 57.0387C23.5566 56.2671 21.8769 55.8649 20.1432 55.8649C16.3334 55.8649 12.7745 57.888 10.7979 61.099C9.95421 60.8281 9.0733 60.6909 8.18718 60.6924C4.61267 60.6924 1.38725 62.948 0.160956 66.3048C0.0137193 66.7077 -0.0342548 67.1401 0.0210971 67.5654C0.076449 67.9907 0.233496 68.3964 0.478936 68.7482C0.723269 69.0972 1.04815 69.3822 1.42605 69.579C1.80395 69.7758 2.22372 69.8786 2.64979 69.8787H34.6853C35.3327 69.8787 35.8572 69.354 35.8572 68.7068C35.8572 68.0596 35.3327 67.5349 34.6853 67.5349H2.65073C2.6015 67.5359 2.5528 67.5245 2.5091 67.5018C2.46539 67.4791 2.42808 67.4459 2.40057 67.405C2.37041 67.3626 2.35125 67.3133 2.34478 67.2617C2.33832 67.2101 2.34476 67.1576 2.36353 67.1091C3.25341 64.673 5.59412 63.0363 8.18811 63.0363C9.11065 63.0363 9.99943 63.2347 10.8295 63.6263C11.1087 63.758 11.4287 63.7742 11.7198 63.6713C12.0109 63.5684 12.2497 63.3548 12.3842 63.0769C13.8153 60.1196 16.8612 58.2088 20.144 58.2088C21.9441 58.2088 23.6699 58.7605 25.135 59.8043C25.2936 59.9173 25.478 59.989 25.6714 60.0128C25.8647 60.0367 26.061 60.012 26.2424 59.9409C26.4238 59.8698 26.5846 59.7546 26.7103 59.6058C26.836 59.4569 26.9225 59.2791 26.9622 59.0883C28.2621 52.8309 33.8517 48.2893 40.2531 48.2893C46.3856 48.2893 51.7773 52.421 53.3645 58.3369C53.4094 58.504 53.4907 58.6591 53.6026 58.7911C53.7146 58.923 53.8543 59.0286 54.0119 59.1002C54.1694 59.1717 54.3409 59.2075 54.5139 59.2049C54.6869 59.2024 54.8572 59.1615 55.0126 59.0853C56.1982 58.5038 57.4727 58.2089 58.8004 58.2089C62.2792 58.2089 65.3981 60.2816 66.7463 63.4894C66.8125 63.6472 66.9125 63.7885 67.0392 63.9035C67.1659 64.0184 67.3162 64.1042 67.4797 64.1549C67.6431 64.2056 67.8156 64.2198 67.9851 64.1966C68.1546 64.1735 68.317 64.1135 68.4609 64.0208C69.4597 63.3773 70.623 63.0356 71.8111 63.0366C74.4053 63.0366 76.7458 64.6733 77.6357 67.1094C77.6544 67.158 77.6608 67.2104 77.6543 67.2621C77.6478 67.3138 77.6287 67.363 77.5985 67.4055C77.571 67.4463 77.5337 67.4796 77.49 67.5023C77.4463 67.525 77.3976 67.5363 77.3484 67.5353H39.3739C38.7265 67.5353 38.202 68.06 38.202 68.7072C38.202 69.3545 38.7265 69.8792 39.3739 69.8792H77.3488C77.7749 69.879 78.1946 69.7762 78.5725 69.5795C78.9504 69.3827 79.2753 69.0978 79.5197 68.7488C79.7651 68.3969 79.9222 67.9911 79.9776 67.5657C80.0329 67.1403 79.985 66.7078 79.8378 66.3048ZM57.8144 12.4689C60.6621 12.402 63.7104 13.229 66.3917 14.7941C68.9798 16.3048 71.0794 18.398 72.3035 20.6882C72.3754 20.8226 72.3276 20.9843 72.1947 21.0563C69.7568 22.3784 61.3965 26.5604 56.1825 24.8715C54.7376 24.4035 53.6692 23.5272 52.9261 22.2026C56.4868 19.3891 59.7566 18.5422 59.8065 18.5299C60.0639 18.4673 60.2925 18.3193 60.4551 18.1101C60.6176 17.9009 60.7044 17.6428 60.7014 17.3779C60.6984 17.113 60.6057 16.857 60.4385 16.6515C60.2712 16.4461 60.0393 16.3034 59.7806 16.2466C57.5081 15.7479 54.903 15.7015 52.2545 16.3306C52.9498 13.8361 54.8138 12.5379 57.8144 12.4689ZM39.0387 35.0817C39.8325 31.9416 40.9069 29.2085 42.2321 26.9583C44.6499 22.8527 48.9449 18.9089 54.5215 18.2725C51.5356 19.9801 47.7406 22.9913 44.9925 28.1025C42.7365 32.2988 41.5104 36.3584 40.8436 39.5623C40.4139 38.2421 39.9194 37.0075 39.3597 35.8669C39.2461 35.6361 39.129 35.4071 39.0086 35.1798C39.0197 35.1478 39.0303 35.1153 39.0387 35.0817ZM34.4162 37.8312C32.0641 32.526 28.5088 29.2354 25.6612 27.3061C31.1728 28.3646 35.1567 32.6228 37.2555 36.8997C38.4939 39.4231 39.3956 42.4655 39.9397 45.9518C38.9776 45.9708 38.0318 46.0749 37.1118 46.2616C36.4986 43.3253 35.5956 40.4912 34.4162 37.8312Z" fill="#001E1D"/>
</g>
<defs>
<clipPath id="clip0_287_710">
<rect width="80" height="80" fill="white"/>
</clipPath>
</defs>
</svg>
