<svg width="80" height="80" viewBox="0 0 80 80" fill="none" xmlns="http://www.w3.org/2000/svg">
<g clip-path="url(#clip0_287_726)">
<mask id="mask0_287_726" style="mask-type:luminance" maskUnits="userSpaceOnUse" x="0" y="0" width="80" height="80">
<path d="M0 0.00023365H79.9998V80H0V0.00023365Z" fill="white"/>
</mask>
<g mask="url(#mask0_287_726)">
<path d="M47.4733 9.22595C47.4733 13.1092 49.7788 15.2347 52.6225 15.2347C55.4664 15.2347 57.7719 13.1092 57.7719 9.22595C57.7719 5.34268 54.0489 1.17222 52.6225 1.17222C51.1963 1.17222 47.4733 5.34268 47.4733 9.22595Z" fill="#8DC57F"/>
<path d="M52.6225 1.17222C52.0703 1.17222 51.1736 1.79941 50.282 2.79112C51.6928 4.36065 53.0906 6.84627 53.0906 9.22595C53.0906 11.9578 51.9488 13.8184 50.282 14.6823C50.9844 15.0464 51.7794 15.2347 52.6225 15.2347C55.4664 15.2347 57.7719 13.1091 57.7719 9.22595C57.7719 5.34268 54.0489 1.17222 52.6225 1.17222Z" fill="#5B8151"/>
<path d="M36.1512 21.5439C39.8271 22.7803 42.5735 21.2687 43.479 18.5694C44.3846 15.87 43.1066 13.0047 39.4304 11.7683C35.7543 10.5316 30.6207 12.7375 30.1667 14.0914C29.7124 15.4455 32.4751 20.3073 36.1512 21.5439Z" fill="#8DC57F"/>
<path d="M39.4304 11.7683C37.903 11.2544 36.1244 11.336 34.534 11.7028C34.606 11.7241 34.6783 11.7444 34.7493 11.7683C38.4254 13.0049 39.7035 15.87 38.7979 18.5694C38.3421 19.9278 37.4201 20.9848 36.1482 21.543C36.1491 21.5433 36.1501 21.5437 36.1511 21.5439C39.8271 22.7806 42.5735 21.2691 43.4789 18.5694C44.3846 15.87 43.1064 13.0049 39.4304 11.7683Z" fill="#5B8151"/>
<path d="M23.9363 34.5701C27.6835 33.5708 29.1415 30.7929 28.4095 28.0412C27.6776 25.2895 25.0332 23.6056 21.2857 24.6052C17.5384 25.6045 14.4722 30.2803 14.8392 31.6604C15.2062 33.0406 20.189 35.5695 23.9363 34.5701Z" fill="#8DC57F"/>
<path d="M28.4097 28.0409C27.6776 25.2891 25.0333 23.6054 21.2858 24.6049C21.1519 24.6412 21.0192 24.6818 20.888 24.7266C22.3297 25.321 23.323 26.5165 23.7284 28.0409C24.438 30.7083 23.0898 33.4001 19.5934 34.473C21.0144 34.8271 22.5586 34.9376 23.9364 34.5699C27.6837 33.5707 29.1415 30.7927 28.4097 28.0409Z" fill="#5B8151"/>
<path d="M46.8278 35.5842C44.0892 32.8348 40.958 32.9604 38.9444 34.9715C36.931 36.9826 36.798 40.1179 39.5368 42.867C42.2753 45.6163 47.8525 45.9362 48.8624 44.9276C49.872 43.9188 49.5666 38.3335 46.8278 35.5842Z" fill="#8DC57F"/>
<path d="M46.8279 35.5842C44.5765 33.3239 42.0601 33.0081 40.1172 34.084C40.8024 34.4265 41.486 34.9209 42.1468 35.5842C44.8855 38.3335 45.191 43.9188 44.1813 44.9276C44.111 44.9976 44.0169 45.0604 43.9052 45.1174C46.1316 45.6509 48.2735 45.5157 48.8624 44.9276C49.8721 43.9188 49.5666 38.3335 46.8279 35.5842Z" fill="#5B8151"/>
<path d="M62.3953 24.2964C59.5948 21.6103 56.4674 21.8069 54.5 23.8634C52.5328 25.9198 52.4708 29.0573 55.2713 31.7434C58.0717 34.4298 63.6547 34.6225 64.6414 33.5911C65.6279 32.5597 65.1958 26.9826 62.3953 24.2964Z" fill="#8DC57F"/>
<path d="M62.3953 24.2964C60.133 22.1264 57.6575 21.8386 55.7523 22.8919C56.4116 23.2172 57.0716 23.68 57.7142 24.2964C60.5147 26.9826 60.9467 32.5596 59.9602 33.591C59.8622 33.6935 59.7172 33.7832 59.5359 33.8603C61.8291 34.3854 64.0528 34.2062 64.6414 33.591C65.6279 32.5596 65.1958 26.9826 62.3953 24.2964Z" fill="#5B8151"/>
<path d="M55.0597 49.219H61.2496C62.285 49.219 63.1246 50.0585 63.1246 51.094V56.0939C63.1246 57.1294 62.285 57.9689 61.2496 57.9689H18.7497C17.7142 57.9689 16.8747 57.1294 16.8747 56.0939V51.094C16.8747 50.0585 17.7142 49.219 18.7497 49.219H49.9637" stroke="#001E1D" stroke-width="2.27" stroke-miterlimit="10" stroke-linecap="round" stroke-linejoin="round"/>
<path d="M19.812 62.4822L19.0622 57.9689H60.9371L57.4715 78.8282H22.5278L20.6391 67.4597" stroke="#001E1D" stroke-width="2.27" stroke-miterlimit="10" stroke-linecap="round" stroke-linejoin="round"/>
<path d="M47.4733 9.22595C47.4733 13.1092 49.7788 15.2347 52.6225 15.2347C55.4664 15.2347 57.7719 13.1092 57.7719 9.22595C57.7719 5.34268 54.0489 1.17222 52.6225 1.17222C51.1963 1.17222 47.4733 5.34268 47.4733 9.22595Z" stroke="#001E1D" stroke-width="2.27" stroke-miterlimit="10" stroke-linecap="round" stroke-linejoin="round"/>
<path d="M33.6765 11.9316C31.8354 12.4961 30.3974 13.4036 30.1667 14.0913C29.7124 15.4453 32.4751 20.3072 36.1512 21.5439C39.8271 22.7803 42.5733 21.2687 43.479 18.5692C44.3846 15.8698 43.1066 13.0045 39.4304 11.7681C39.1851 11.6856 38.9333 11.6183 38.6768 11.5652" stroke="#001E1D" stroke-width="2.27" stroke-miterlimit="10" stroke-linecap="round" stroke-linejoin="round"/>
<path d="M23.9363 34.5701C27.6835 33.5708 29.1415 30.7929 28.4095 28.0412C27.6776 25.2895 25.0332 23.6056 21.2857 24.6052C17.5384 25.6045 14.4722 30.2803 14.8392 31.6604C15.2062 33.0406 20.189 35.5695 23.9363 34.5701Z" stroke="#001E1D" stroke-width="2.27" stroke-miterlimit="10" stroke-linecap="round" stroke-linejoin="round"/>
<path d="M46.8278 35.5842C44.0892 32.8348 40.958 32.9604 38.9444 34.9715C36.931 36.9826 36.798 40.1179 39.5368 42.867C42.2753 45.6163 47.8525 45.9362 48.8624 44.9276C49.872 43.9188 49.5666 38.3335 46.8278 35.5842Z" stroke="#001E1D" stroke-width="2.27" stroke-miterlimit="10" stroke-linecap="round" stroke-linejoin="round"/>
<path d="M62.3953 24.2964C59.5948 21.6103 56.4674 21.8069 54.5 23.8634C52.5328 25.9198 52.4708 29.0573 55.2713 31.7434C58.0717 34.4298 63.6547 34.6225 64.6414 33.5911C65.6279 32.5597 65.1958 26.9826 62.3953 24.2964Z" stroke="#001E1D" stroke-width="2.27" stroke-miterlimit="10" stroke-linecap="round" stroke-linejoin="round"/>
<path d="M34.2043 49.2189C34.2043 49.2189 22.0734 34.3059 39.6417 29.7237C56.3494 25.3662 52.6245 8.75452 52.6245 8.75452" stroke="#001E1D" stroke-width="2.27" stroke-miterlimit="10" stroke-linecap="round" stroke-linejoin="round"/>
<path d="M37.673 16.6928C37.673 16.6928 49.8092 18.1172 46.8499 26.3843" stroke="#001E1D" stroke-width="2.27" stroke-miterlimit="10" stroke-linecap="round" stroke-linejoin="round"/>
<path d="M44.123 28.0735C44.123 28.0735 54.7861 21.0342 59.1048 27.7267" stroke="#001E1D" stroke-width="2.27" stroke-miterlimit="10" stroke-linecap="round" stroke-linejoin="round"/>
<path d="M22.4292 29.7718C22.4292 29.7718 36.8827 21.8398 36.1498 30.9181" stroke="#001E1D" stroke-width="2.27" stroke-miterlimit="10" stroke-linecap="round" stroke-linejoin="round"/>
<path d="M30.1263 39.4702C30.1263 39.4702 34.9462 30.2846 44.2876 39.0987" stroke="#001E1D" stroke-width="2.27" stroke-miterlimit="10" stroke-linecap="round" stroke-linejoin="round"/>
</g>
</g>
<defs>
<clipPath id="clip0_287_726">
<rect width="80" height="80" fill="white"/>
</clipPath>
</defs>
</svg>
