<svg width="80" height="80" viewBox="0 0 80 80" fill="none" xmlns="http://www.w3.org/2000/svg">
<g clip-path="url(#clip0_287_760)">
<path d="M63.7731 71.3688C62.7099 67.491 60.1795 56.8394 60.1795 43.2933C60.1795 39.1902 59.634 35.8717 58.7054 33.1882" stroke="#001E1D" stroke-width="2.32" stroke-miterlimit="10" stroke-linecap="round" stroke-linejoin="round"/>
<path d="M30.7595 78.8272H64.6171C65.8738 78.8272 66.8927 77.8083 66.8927 76.5515C66.8927 73.3125 64.267 70.6867 61.028 70.6867H58.3473M21.6526 70.6867H18.9719C15.7329 70.6867 13.1071 73.3125 13.1071 76.5515C13.1071 77.8083 14.1259 78.8272 15.3828 78.8272H25.2861M48.4615 1.2772C46.0512 0.984164 43.1551 1.26844 39.9999 2.62682C35.7496 4.45666 32.4205 4.33203 30.2407 3.81867C28.7594 3.46981 27.3121 4.57315 27.3121 6.09494C27.3121 11.5095 31.7015 15.8988 37.1161 15.8988H42.8633C48.2892 15.8988 52.6877 11.5003 52.6877 6.07446C52.6877 3.63947 50.8788 1.57117 48.4615 1.2772ZM46.2539 21.9195H33.7459C32.0834 21.9195 30.7356 20.5718 30.7356 18.9093C30.7356 17.2467 32.0834 15.899 33.7459 15.899H46.2539C47.9164 15.899 49.2641 17.2467 49.2641 18.9093C49.2641 20.5718 47.9164 21.9195 46.2539 21.9195Z" stroke="#001E1D" stroke-width="2.32" stroke-miterlimit="10" stroke-linecap="round" stroke-linejoin="round"/>
<path d="M56.3515 28.5772C51.9289 22.4707 44.6639 21.9195 39.9998 21.9195C32.9128 21.9195 19.8203 23.192 19.8203 43.2933C19.8203 56.8394 17.29 67.491 16.2268 71.3688" stroke="#001E1D" stroke-width="2.32" stroke-miterlimit="10" stroke-linecap="round" stroke-linejoin="round"/>
<path d="M51.2513 61.6461H29.4157C28.2156 61.6461 27.2427 60.6732 27.2427 59.4731V38.0186C27.2427 36.8185 28.2156 35.8455 29.4157 35.8455H51.2513C52.4515 35.8455 53.4244 36.8185 53.4244 38.0186V59.4731C53.4244 60.6732 52.4515 61.6461 51.2513 61.6461Z" fill="#8DC57F" stroke="#001E1D" stroke-width="2.32" stroke-miterlimit="10" stroke-linecap="round" stroke-linejoin="round"/>
<path d="M46.3375 48.0518H45.0672C42.2686 48.0518 39.9999 50.3206 39.9999 53.1191V55.6953H42.5761C45.3746 55.6953 47.6434 53.4265 47.6434 50.628V49.3577C47.6434 49.0113 47.5058 48.6792 47.2609 48.4343C47.016 48.1894 46.6839 48.0518 46.3375 48.0518Z" stroke="#001E1D" stroke-width="2.32" stroke-miterlimit="10" stroke-linecap="round" stroke-linejoin="round"/>
<path d="M39.9999 41.681V55.6953M33.6624 44.9241H34.9327C37.7313 44.9241 40 47.1929 40 49.9914V52.5676H37.4238C34.6253 52.5676 32.3565 50.299 32.3565 47.5003V46.23C32.3565 45.8836 32.4941 45.5515 32.739 45.3066C32.9839 45.0617 33.316 44.9241 33.6624 44.9241Z" stroke="#001E1D" stroke-width="2.32" stroke-miterlimit="10" stroke-linecap="round" stroke-linejoin="round"/>
</g>
<defs>
<clipPath id="clip0_287_760">
<rect width="80" height="80" fill="white"/>
</clipPath>
</defs>
</svg>
