<svg width="80" height="80" viewBox="0 0 80 80" fill="none" xmlns="http://www.w3.org/2000/svg">
<g clip-path="url(#clip0_287_770)">
<path d="M68.8342 32.062L65.843 29.0708C65.5351 28.763 65.3622 28.3455 65.3622 27.9102V25.5703C65.3622 24.5954 65.1702 23.6301 64.7971 22.7294C64.424 21.8288 63.8772 21.0104 63.1878 20.3211L62.4673 19.6006C62.0855 19.2189 61.7827 18.7656 61.5761 18.2667L60.0423 14.5638C56.6845 6.45734 48.7742 1.17188 40 1.17188C31.2258 1.17188 23.3156 6.45734 19.9578 14.5636L18.4241 18.2666C18.2174 18.7654 17.9145 19.2187 17.5327 19.6005L16.8122 20.3209C15.42 21.7131 14.6379 23.6013 14.6378 25.5702V27.91C14.6378 28.3453 14.4648 28.7628 14.157 29.0706L11.1658 32.0619C10.1667 33.0609 9.46047 34.3146 9.12375 35.6868C8.78702 37.0589 8.83269 38.4971 9.25578 39.8452L10.5225 43.8814C11.3794 46.6116 13.9094 48.4692 16.7708 48.4692C16.8536 48.4692 16.933 48.5022 16.9916 48.5606L18.5734 50.1425C19.5923 51.1613 20.974 51.7336 22.4148 51.7336H26.3269C26.4882 51.7336 26.6479 51.7654 26.7969 51.8271C26.9459 51.8888 27.0813 51.9792 27.1953 52.0933L27.9083 52.8063C28.6031 53.5012 29.4281 54.0524 30.336 54.4285C31.2439 54.8045 32.217 54.9981 33.1997 54.9981H35.7131V46.7881C35.8264 46.7331 35.9397 46.6813 36.0533 46.6341C37.1372 46.1847 38.4531 46.0361 39.27 45.2192C39.65 44.8392 39.8853 44.3513 40.0736 43.8289C40.4498 44.1431 40.8398 44.4452 41.172 44.7772C41.9887 45.5939 42.6236 46.7617 43.7073 47.2113C43.8937 47.2873 44.0881 47.3419 44.2869 47.3739V54.998H46.8003C47.783 54.998 48.7561 54.8044 49.664 54.4283C50.5719 54.0522 51.3969 53.501 52.0917 52.8061L52.8047 52.0931C52.9187 51.9791 53.0541 51.8886 53.2031 51.8269C53.3521 51.7652 53.5118 51.7334 53.6731 51.7334H57.5852C58.2985 51.7334 59.0049 51.5929 59.664 51.3199C60.3231 51.0469 60.922 50.6468 61.4264 50.1423L63.0083 48.5605C63.0373 48.5315 63.0717 48.5085 63.1096 48.4928C63.1475 48.4771 63.1881 48.4691 63.2291 48.4691C66.0905 48.4691 68.6206 46.6114 69.4773 43.8813L70.7441 39.845C71.1672 38.497 71.2129 37.0589 70.8762 35.6868C70.5395 34.3147 69.8333 33.061 68.8342 32.062Z" fill="#8DC57F"/>
<path d="M26.9498 51.8731L26.8947 51.8728C27.0045 51.9301 27.1062 52.0041 27.1955 52.0933L27.9084 52.8062C28.6033 53.5011 29.4282 54.0524 30.3361 54.4285C31.244 54.8045 32.2171 54.9981 33.1998 54.9981H35.7133V51.8731H26.9498ZM68.8342 32.062L65.843 29.0708C65.5351 28.763 65.3622 28.3455 65.3622 27.9102V25.5703C65.3622 24.5954 65.1702 23.6301 64.7971 22.7294C64.424 21.8288 63.8772 21.0104 63.1878 20.3211L62.4673 19.6006C62.0855 19.2188 61.7826 18.7656 61.5759 18.2667L60.0422 14.5637C57.5358 8.51281 52.493 4.03375 46.4477 2.15125C49.7107 4.5051 52.2538 7.72104 53.7922 11.4387L55.3259 15.1417C55.5326 15.6406 55.8355 16.0938 56.2173 16.4756L56.9378 17.1961C58.33 18.5883 59.1121 20.4765 59.1122 22.4453V24.7852C59.1122 25.2205 59.2852 25.638 59.593 25.9458L62.5842 28.937C63.5832 29.9361 64.2895 31.1898 64.6262 32.5619C64.9629 33.9341 64.9173 35.3723 64.4942 36.7203L63.2275 40.7566C62.3706 43.4867 59.8406 45.3444 56.9792 45.3444C56.8964 45.3444 56.817 45.3773 56.7584 45.4358L55.1766 47.0177C54.1578 48.0364 52.776 48.6087 51.3353 48.6087H47.4233C47.0976 48.6087 46.7852 48.7381 46.5548 48.9684L45.8419 49.6814C45.3781 50.1452 44.8553 50.546 44.287 50.8734V54.9983H46.8005C48.7852 54.9983 50.6886 54.2098 52.092 52.8064L52.805 52.0934C52.919 51.9794 53.0544 51.8889 53.2034 51.8272C53.3524 51.7655 53.5122 51.7337 53.6734 51.7337H57.5855C58.2989 51.7337 59.0053 51.5932 59.6643 51.3202C60.3234 51.0472 60.9223 50.6471 61.4267 50.1427L63.0086 48.5608C63.0376 48.5318 63.072 48.5088 63.1099 48.4931C63.1478 48.4774 63.1884 48.4694 63.2294 48.4694C66.0908 48.4694 68.6209 46.6117 69.4777 43.8816L70.7444 39.8453C71.1674 38.4972 71.213 37.0591 70.8762 35.6869C70.5395 34.3148 69.8332 33.0611 68.8342 32.062Z" fill="#5B8151"/>
<path d="M21.0556 25.1766C20.1256 26.3895 20.1575 27.9078 19.8748 28.962C19.7944 29.2623 19.8365 29.5822 19.992 29.8513C20.1474 30.1205 20.4034 30.3169 20.7036 30.3974C21.0038 30.4778 21.3237 30.4357 21.5929 30.2802C21.8621 30.1248 22.0585 29.8688 22.1389 29.5686C22.4398 28.4453 22.4317 27.2338 22.9156 26.6027C23.3734 26.0053 24.5481 25.6805 25.5789 25.0855C26.6052 24.493 27.4797 23.6353 28.2245 23.5375C28.7352 23.4716 29.3606 23.7063 30.0234 23.9556C30.3945 24.0953 30.7783 24.2397 31.1816 24.3478C31.3302 24.3877 31.4853 24.3978 31.6379 24.3777C31.7904 24.3576 31.9376 24.3077 32.0709 24.2307C32.2041 24.1538 32.321 24.0513 32.4146 23.9292C32.5083 23.8071 32.577 23.6677 32.6169 23.5191C32.6567 23.3704 32.6669 23.2154 32.6468 23.0628C32.6267 22.9102 32.5767 22.7631 32.4998 22.6298C32.4228 22.4965 32.3203 22.3797 32.1982 22.286C32.0761 22.1923 31.9368 22.1236 31.7881 22.0838C30.7339 21.8014 29.4341 21.0145 27.9197 21.2136C26.8627 21.3524 26.0175 21.9513 25.2717 22.4797C24.4948 23.0302 24.3447 23.1174 23.4762 23.5163C22.6456 23.8981 21.7042 24.3306 21.0556 25.1766ZM47.2706 7.70689C46.378 7.33689 45.4598 7.42236 44.6497 7.49798C43.833 7.57408 43.6895 7.57423 42.8719 7.49798C42.0614 7.42251 41.1434 7.33689 40.2511 7.70704C38.9787 8.2347 38.3305 9.41361 37.6628 10.0811C37.448 10.3019 37.3288 10.5984 37.3309 10.9064C37.3331 11.2144 37.4564 11.5092 37.6742 11.7271C37.892 11.9449 38.1868 12.0682 38.4948 12.0703C38.8029 12.0724 39.0993 11.9532 39.3202 11.7385C40.0356 11.0227 40.5559 10.118 41.1489 9.87204C41.5042 9.72454 42.0631 9.77658 42.6545 9.83173C43.0095 9.86486 43.3769 9.89908 43.7609 9.89908C44.145 9.89908 44.5122 9.86486 44.8672 9.83173C45.4589 9.77673 46.0175 9.72454 46.373 9.8722C46.9659 10.118 47.4873 11.0241 48.2017 11.7385C48.3101 11.8492 48.4394 11.9373 48.5821 11.9977C48.7247 12.0581 48.878 12.0897 49.0329 12.0905C49.1879 12.0913 49.3414 12.0613 49.4847 12.0024C49.628 11.9435 49.7582 11.8567 49.8678 11.7472C49.9773 11.6376 50.0641 11.5074 50.123 11.3641C50.1819 11.2208 50.2118 11.0672 50.2109 10.9123C50.2101 10.7573 50.1785 10.6041 50.1181 10.4614C50.0576 10.3187 49.9695 10.1895 49.8587 10.0811C49.1914 9.41361 48.5422 8.23423 47.2706 7.70689ZM57.6506 32.2947C57.6506 32.9419 58.1752 33.4666 58.8225 33.4666C59.4698 33.4666 59.9944 32.9419 59.9944 32.2947C59.9944 31.3505 60.3692 30.058 59.843 28.7859C59.3309 27.5486 58.1716 26.9002 57.4686 26.1967C56.7653 25.4934 56.115 24.3336 54.8794 23.8222C53.6072 23.2959 52.3128 23.6708 51.3703 23.6708C51.0595 23.6708 50.7615 23.7943 50.5417 24.0141C50.322 24.2339 50.1985 24.532 50.1986 24.8428C50.1986 25.1536 50.3221 25.4517 50.5419 25.6714C50.7617 25.8912 51.0598 26.0146 51.3706 26.0145C51.7416 26.0145 52.1008 25.9791 52.4481 25.9449C53.0425 25.8864 53.6041 25.8308 53.9833 25.9878C54.3392 26.135 54.6973 26.5669 55.0767 27.0241C55.3044 27.2986 55.5398 27.5824 55.8112 27.8539C56.5366 28.5794 57.4466 29.1239 57.6773 29.6819C57.9228 30.2752 57.6506 31.2842 57.6506 32.2947Z" fill="#001E1D"/>
<path d="M69.6628 31.2333L66.6716 28.242C66.6278 28.1985 66.5931 28.1468 66.5695 28.0898C66.5459 28.0328 66.5338 27.9717 66.5339 27.91V25.5702C66.5339 23.2744 65.6398 21.1159 64.0164 19.4922L63.2961 18.7719C63.0228 18.4991 62.8062 18.1749 62.6587 17.818L61.125 14.115C57.5731 5.54047 49.2809 3.84168e-07 40 3.84168e-07C34.4243 -0.00102137 29.0405 2.03613 24.8622 5.72797C24.6312 5.93423 24.4913 6.22352 24.473 6.53262C24.4547 6.84172 24.5594 7.14552 24.7644 7.37763C24.9693 7.60975 25.2578 7.75131 25.5668 7.7714C25.8758 7.79149 26.1802 7.68847 26.4134 7.48485C30.1636 4.17132 34.9957 2.34289 40 2.34375C48.3298 2.34375 55.7717 7.31641 58.9597 15.012L60.4933 18.7148C60.7583 19.3563 61.1476 19.9389 61.6387 20.4292L62.3591 21.1495C63.5398 22.3305 64.1902 23.9003 64.1902 25.5702V27.91C64.1902 28.6613 64.4828 29.3678 65.0141 29.8992L68.0055 32.8905C69.7392 34.6242 70.3602 37.1547 69.6259 39.4942L68.3592 43.5305C67.6523 45.7834 65.5905 47.2972 63.2291 47.2972C63.0341 47.2967 62.8409 47.3349 62.6608 47.4095C62.4806 47.4841 62.3171 47.5937 62.1795 47.7319L60.5977 49.3138C59.793 50.1184 58.723 50.5617 57.585 50.5617H53.6731C53.3579 50.5608 53.0455 50.6225 52.7543 50.7431C52.463 50.8638 52.1986 51.041 51.9762 51.2645L51.2631 51.9775C50.0711 53.1695 48.4862 53.8261 46.8003 53.8261H45.4587V48.5802C46.0859 48.5434 46.6847 48.4548 47.2214 48.4548C47.5453 48.4548 47.8916 48.4872 48.2581 48.5213C48.6477 48.5575 49.0592 48.5959 49.48 48.5959C50.0423 48.5959 50.6209 48.5275 51.1841 48.2939C52.5961 47.7084 53.3272 46.3777 54.0994 45.6059C54.3175 45.3858 54.4396 45.0883 54.4389 44.7784C54.4383 44.4684 54.3148 44.1714 54.0957 43.9523C53.8765 43.7332 53.5795 43.6098 53.2696 43.6091C52.9597 43.6084 52.6621 43.7306 52.442 43.9488C52.1469 44.2441 51.8867 44.5609 51.6353 44.8673C51.1861 45.4147 50.7617 45.9319 50.2864 46.1289C49.5911 46.4172 48.4108 46.1113 47.2214 46.1113C46.7884 46.1113 46.3709 46.1502 45.9672 46.1878C44.1677 46.3556 43.9772 46.2925 42.8073 44.8675C42.2889 44.2356 42.0303 43.938 41.4345 43.4342C41.5339 43.1116 41.6408 42.7569 41.7673 42.4516C42.1745 41.47 43.1308 40.2861 43.1308 38.728C43.1308 38.0808 42.6062 37.5561 41.9589 37.5561C41.3116 37.5561 40.787 38.0808 40.787 38.728C40.787 39.5509 40.0412 40.4956 39.6023 41.5538C39.3373 42.1928 39.1805 42.8458 38.9786 43.4109C38.9734 43.4244 38.9685 43.438 38.9639 43.4517C38.8242 43.8353 38.6639 44.1683 38.4416 44.3906C37.8919 44.9402 36.6834 45.1042 35.6047 45.5516C34.5422 45.992 33.6037 46.7363 32.7789 46.7363C31.9542 46.7363 31.0142 45.9916 29.9531 45.5517C28.8702 45.1025 27.6666 44.9413 27.1161 44.3906C26.5664 43.8411 26.4025 42.6327 25.9553 41.5539C25.8336 41.2708 25.6052 41.047 25.3197 40.931C25.0341 40.8151 24.7144 40.8162 24.4297 40.9342C24.145 41.0523 23.9183 41.2777 23.7986 41.5617C23.6789 41.8456 23.6759 42.1654 23.7902 42.4516C24.2178 43.4825 24.3917 44.9811 25.4587 46.048C26.5239 47.1131 28.0256 47.2898 29.0553 47.7167C30.0384 48.1244 31.2209 49.08 32.7789 49.08C33.4283 49.08 34.0097 48.9153 34.5416 48.692V53.8264H33.2002C31.5142 53.8264 29.9294 53.1698 28.7373 51.9778L28.0244 51.2649C27.802 51.0413 27.5376 50.8641 27.2463 50.7434C26.955 50.6227 26.6426 50.561 26.3273 50.5619H22.4153C21.2773 50.5619 20.2073 50.1188 19.4027 49.3139L17.8208 47.732C17.6833 47.5938 17.5198 47.4842 17.3396 47.4096C17.1595 47.335 16.9664 47.2968 16.7714 47.2973C14.41 47.2973 12.3483 45.7836 11.6412 43.5305L10.3745 39.4942C9.64031 37.1547 10.2612 34.6244 11.9952 32.8905L14.9864 29.8992C15.2485 29.6386 15.4562 29.3286 15.5977 28.9872C15.7391 28.6457 15.8115 28.2796 15.8105 27.91V25.5702C15.8105 23.9002 16.4608 22.3303 17.6416 21.1495L18.362 20.4291C18.8533 19.9389 19.2426 19.3563 19.5075 18.7148L21.0412 15.0119C21.5694 13.7369 22.2245 12.5184 22.9966 11.3745C23.3589 10.8383 23.2178 10.1098 22.6814 9.7475C22.145 9.38516 21.4166 9.52625 21.0544 10.0627C20.1942 11.337 19.4643 12.6947 18.8758 14.1152L17.342 17.818C17.1946 18.1749 16.978 18.4991 16.7047 18.7719L15.9842 19.4923C14.3608 21.1158 13.4667 23.2744 13.4667 25.5702V27.91C13.4667 28.0355 13.418 28.1533 13.3292 28.242L10.338 31.2333C7.98468 33.5866 7.14187 37.0209 8.13843 40.1961L9.40515 44.2322C10.3839 47.3508 13.1702 49.483 16.407 49.6325L17.7455 50.9709C18.9928 52.2183 20.6514 52.9053 22.4155 52.9053H26.3275C26.3425 52.9053 26.3567 52.9111 26.3672 52.9217L27.0802 53.6347C28.7148 55.2694 30.8884 56.1698 33.2003 56.1698H34.5417V67.5244C34.5417 70.9019 33.2266 74.0772 30.8383 76.4653L29.5431 77.7605C29.1666 78.137 29.055 78.698 29.2587 79.19C29.4625 79.682 29.9383 79.9998 30.4706 79.9998H49.5298C50.0622 79.9998 50.5378 79.682 50.7417 79.1903C50.9456 78.6986 50.8342 78.1375 50.4575 77.7606L49.1625 76.4655C46.7742 74.0773 45.4591 70.902 45.4591 67.5245V63.5697C45.4591 62.9225 44.9345 62.3978 44.2872 62.3978C43.6398 62.3978 43.1153 62.9225 43.1153 63.5697V67.5245C43.1153 71.3119 44.5106 74.8848 47.0577 77.6561H32.943C35.4902 74.8847 36.8855 71.3117 36.8855 67.5245V47.5741C37.0675 47.5122 37.2594 47.4531 37.4577 47.3922C38.3358 47.122 39.3311 46.8159 40.0991 46.048C40.2134 45.9334 40.3202 45.8115 40.4187 45.6831C41.1347 46.4333 41.8419 47.6386 43.1153 48.2309V58.1013C43.1153 58.7484 43.6398 59.2731 44.2872 59.2731C44.9345 59.2731 45.4591 58.7484 45.4591 58.1013V56.1702H46.8006C49.1125 56.1702 51.2861 55.2699 52.9206 53.6352L53.6338 52.922C53.639 52.9168 53.6452 52.9127 53.652 52.9099C53.6588 52.9071 53.6661 52.9057 53.6734 52.9058H57.5853C59.3494 52.9058 61.0078 52.2188 62.2555 50.9714L63.5939 49.633C66.8308 49.4834 69.6172 47.3513 70.5958 44.2327L71.8625 40.1964C72.8588 37.0208 72.0159 33.5864 69.6628 31.2333Z" fill="#001E1D"/>
<path d="M41.5525 60.4245V49.6819C41.5525 49.3711 41.429 49.073 41.2093 48.8532C40.9895 48.6335 40.6914 48.51 40.3806 48.51C40.0698 48.51 39.7718 48.6335 39.552 48.8532C39.3322 49.073 39.2087 49.3711 39.2087 49.6819V60.4245C39.2087 60.7353 39.3322 61.0334 39.552 61.2532C39.7718 61.473 40.0698 61.5964 40.3806 61.5964C40.6914 61.5964 40.9895 61.473 41.2093 61.2532C41.429 61.0334 41.5525 60.7353 41.5525 60.4245ZM38.4477 66.182V67.5247C38.4477 69.9428 37.943 72.267 36.9477 74.4324C36.8181 74.7147 36.806 75.0369 36.914 75.3282C37.0219 75.6195 37.2411 75.856 37.5233 75.9858C37.8056 76.1155 38.1278 76.1279 38.4192 76.0201C38.7105 75.9124 38.9472 75.6934 39.0772 75.4113C40.2147 72.9366 40.7914 70.2831 40.7914 67.5247V66.182C40.7914 65.5349 40.2669 65.0102 39.6195 65.0102C38.9722 65.0102 38.4477 65.5349 38.4477 66.182Z" fill="#001E1D"/>
</g>
<defs>
<clipPath id="clip0_287_770">
<rect width="80" height="80" fill="white"/>
</clipPath>
</defs>
</svg>
