<svg width="80" height="80" viewBox="0 0 80 80" fill="none" xmlns="http://www.w3.org/2000/svg">
<g clip-path="url(#clip0_287_781)">
<path d="M48.61 69.9906C44.2409 71.9476 39.5723 72.3601 35.217 71.4587C28.5519 70.0807 39.7849 67.7419 42.3328 59.8566C49.3658 49.8208 43.7276 37.9929 40.8602 29.7491C40.1122 27.5986 36.5592 25.0896 42.3328 26.6951C56.0513 24.237 74.4581 24.4831 78.1474 32.7201C83.1017 43.7743 59.6658 65.0364 48.61 69.9906Z" fill="#8DC57F"/>
<path d="M48.6092 69.9911C39.7839 72.4013 31.5412 69.4352 20.0717 66.6665C18.9964 67.2847 23.2976 64.8123 20.0717 66.6665C32.258 69.6082 35.1244 71.6845 47.4292 67.3575C58.0422 62.602 80.0657 42.8158 77.4277 31.4604C77.708 31.8556 77.9489 32.2772 78.1472 32.7192C83.101 43.7745 59.6647 65.0373 48.6092 69.9911Z" fill="#5B8151"/>
<path d="M64.2592 57.2012C58.8064 62.3748 52.4756 66.9751 48.1306 68.9206C43.8473 70.8401 39.1478 71.2497 34.6636 70.1325C36.7501 68.9212 38.6356 67.3929 40.2525 65.6023C49.7009 64.3989 56.4866 57.5836 56.7709 57.2939C56.9868 57.0717 57.1059 56.7731 57.1022 56.4634C57.0985 56.1536 56.9723 55.8579 56.7513 55.641C56.5302 55.424 56.2322 55.3034 55.9225 55.3055C55.6127 55.3076 55.3164 55.4322 55.0983 55.6522C55.0406 55.7109 49.7947 60.9817 42.4089 62.8156C44.8114 59.172 46.2119 54.8123 46.2119 50.1311C46.2119 49.2908 46.1655 48.3504 46.0739 47.3359C46.0156 46.6914 45.445 46.2184 44.8014 46.2742C44.6481 46.288 44.4991 46.3319 44.3628 46.4034C44.2264 46.4748 44.1055 46.5724 44.0069 46.6906C43.9084 46.8088 43.834 46.9452 43.7882 47.0921C43.7423 47.2391 43.7258 47.3936 43.7397 47.5468C43.825 48.4914 43.8683 49.3608 43.8683 50.1311C43.8683 61.5793 34.5544 70.8934 23.1061 70.8934C11.6575 70.8931 2.34375 61.5793 2.34375 50.1309C2.34375 43.8894 5.00406 33.3042 8.66906 24.9615C13.0958 14.8858 18.3578 9.10685 23.1059 9.10685C27.4164 9.10685 31.2206 13.6876 33.6528 17.5308C33.7351 17.6608 33.8422 17.7734 33.968 17.862C34.0938 17.9507 34.2358 18.0137 34.386 18.0474C34.5361 18.0812 34.6914 18.085 34.8431 18.0587C34.9947 18.0324 35.1397 17.9765 35.2697 17.8942C35.5323 17.728 35.7182 17.4643 35.7863 17.1611C35.8545 16.8578 35.7995 16.5399 35.6333 16.2773C31.6378 9.96419 27.4228 6.76294 23.1061 6.76294C19.9163 6.76294 16.7466 8.54325 13.685 12.0542C11.1369 14.9764 8.7275 19.0017 6.52344 24.0186C2.6825 32.7614 0 43.4989 0 50.1309C0 62.8715 10.3653 73.237 23.1061 73.237C26.097 73.237 28.9567 72.6656 31.5825 71.6265C34.205 72.6036 36.9305 73.0919 39.6511 73.0919C42.8641 73.0919 46.0695 72.4126 49.0891 71.0595C53.7256 68.9831 60.1567 64.3245 65.8727 58.9014C65.9843 58.7954 66.074 58.6685 66.1366 58.528C66.1992 58.3874 66.2334 58.2358 66.2375 58.082C66.2415 57.9281 66.2152 57.775 66.16 57.6313C66.1049 57.4876 66.0219 57.3562 65.916 57.2446C65.8101 57.1329 65.6832 57.0433 65.5426 56.9807C65.402 56.9181 65.2504 56.8838 65.0966 56.8798C64.9427 56.8757 64.7896 56.9021 64.6459 56.9572C64.5023 57.0124 64.3708 57.0953 64.2592 57.2012Z" fill="#001E1D"/>
<path d="M79.2177 32.2399C77.2677 27.8878 71.5836 25.1746 62.78 24.394C56.2039 23.8107 47.9356 24.3584 40.4644 25.8571C39.7405 24.0849 38.9727 22.3843 38.1748 20.7979C38.1057 20.6604 38.0102 20.5379 37.8937 20.4373C37.7772 20.3367 37.642 20.2601 37.4959 20.2117C37.3498 20.1634 37.1956 20.1443 37.0421 20.1556C36.8886 20.1669 36.7389 20.2083 36.6014 20.2774C36.4639 20.3466 36.3414 20.4421 36.2408 20.5585C36.1402 20.675 36.0636 20.8102 36.0152 20.9563C35.9669 21.1024 35.9478 21.2566 35.9591 21.41C35.9704 21.5635 36.0118 21.7133 36.0809 21.8507C39.142 27.9376 41.7506 35.7593 43.0591 42.7734C43.1161 43.0789 43.2922 43.3492 43.5486 43.525C43.8049 43.7007 44.1205 43.7675 44.4261 43.7106C44.7316 43.6536 45.002 43.4775 45.1777 43.2212C45.3535 42.9649 45.4202 42.6492 45.3633 42.3437C44.963 40.1976 44.4433 37.9778 43.8289 35.7526C56.5153 31.2374 66.0273 33.3609 66.1222 33.3828C66.2724 33.4194 66.4285 33.4259 66.5812 33.4019C66.734 33.3779 66.8805 33.324 67.0124 33.2431C67.1442 33.1622 67.2587 33.0561 67.3493 32.9308C67.4399 32.8054 67.5048 32.6634 67.5403 32.5129C67.5757 32.3623 67.581 32.2063 67.5559 32.0537C67.5308 31.9011 67.4757 31.755 67.3938 31.6238C67.3119 31.4926 67.2049 31.3789 67.0789 31.2893C66.9528 31.1996 66.8103 31.1358 66.6595 31.1015C66.2416 31.0028 56.4759 28.796 43.1745 33.4979C42.6182 31.6708 42.004 29.8619 41.3326 28.0739C48.4853 26.6778 56.3269 26.1746 62.5731 26.7284C68.0873 27.2173 75.08 28.7367 77.0789 33.1981C79.1073 37.7245 75.6722 45.2296 67.6542 53.789C67.5474 53.901 67.4638 54.0331 67.4083 54.1776C67.3527 54.3221 67.3264 54.4761 67.3307 54.6308C67.3351 54.7856 67.3701 54.9379 67.4336 55.079C67.4972 55.2202 67.5881 55.3473 67.701 55.4532C67.814 55.559 67.9468 55.6414 68.0918 55.6956C68.2368 55.7498 68.3911 55.7747 68.5458 55.769C68.7005 55.7632 68.8525 55.7268 68.993 55.662C69.1336 55.5972 69.2599 55.5051 69.3647 55.3912C74.4747 49.9363 82.5497 39.6751 79.2177 32.2399Z" fill="#001E1D"/>
<path d="M48.6569 52.1558C48.8358 52.1557 49.0123 52.1145 49.1728 52.0353L62.8092 45.3336C62.9473 45.2657 63.0707 45.1713 63.1724 45.0557C63.274 44.9402 63.3519 44.8057 63.4016 44.66C63.4512 44.5144 63.4717 44.3603 63.4619 44.2068C63.452 44.0532 63.412 43.903 63.3441 43.7649C63.2763 43.6268 63.1818 43.5034 63.0663 43.4018C62.9507 43.3001 62.8162 43.2222 62.6706 43.1726C62.5249 43.1229 62.3709 43.1024 62.2173 43.1123C62.0637 43.1221 61.9136 43.1621 61.7755 43.23L48.1391 49.9317C47.9012 50.0483 47.7099 50.2421 47.5963 50.4815C47.4827 50.7208 47.4536 50.9916 47.5136 51.2496C47.5737 51.5077 47.7194 51.7377 47.9271 51.9023C48.1347 52.0668 48.3919 52.1562 48.6569 52.1558ZM18.7945 19.1794C18.9831 18.9323 19.0658 18.6204 19.0244 18.3124C18.9831 18.0044 18.821 17.7254 18.574 17.5368C18.4516 17.4434 18.3121 17.3751 18.1634 17.3356C18.0146 17.2962 17.8595 17.2864 17.707 17.3069C17.399 17.3482 17.12 17.5103 16.9314 17.7573C16.8148 17.9098 14.0534 21.567 11.8811 28.2436C9.88937 34.3647 8.04265 44.3066 10.5547 56.9078C10.6156 57.2126 10.795 57.4807 11.0534 57.6532C11.3119 57.8257 11.6283 57.8885 11.9331 57.8278C12.084 57.7977 12.2276 57.7382 12.3555 57.6526C12.4834 57.5671 12.5932 57.4572 12.6787 57.3292C12.7641 57.2012 12.8235 57.0576 12.8535 56.9066C12.8834 56.7557 12.8834 56.6003 12.8533 56.4494C10.4508 44.3987 12.1916 34.9122 14.075 29.0761C16.1187 22.7434 18.768 19.2144 18.7945 19.1794ZM31.2669 65.4208C31.5728 65.4212 31.8667 65.3015 32.0853 65.0875C36.6928 60.5912 38.9645 54.3812 38.6548 47.1297C38.4237 41.7158 36.8572 37.6619 36.7905 37.4919C36.6771 37.2028 36.4536 36.9705 36.1691 36.8461C35.8846 36.7217 35.5623 36.7153 35.2731 36.8284C34.9838 36.9416 34.7512 37.165 34.6264 37.4495C34.5017 37.734 34.495 38.0565 34.6078 38.3459C34.6228 38.3845 36.1133 42.2617 36.3161 47.3005C36.583 53.9298 34.6086 59.3498 30.4481 63.4101C30.2257 63.6272 30.0987 63.9237 30.0949 64.2345C30.0911 64.5452 30.2109 64.8448 30.428 65.0672C30.537 65.1792 30.6675 65.2683 30.8116 65.329C30.9557 65.3898 31.1105 65.421 31.2669 65.4208ZM27.713 43.4892C27.8704 43.4893 28.0263 43.4577 28.1713 43.3962C28.3162 43.3347 28.4473 43.2446 28.5567 43.1314C28.6661 43.0181 28.7515 42.8839 28.8079 42.7369C28.8643 42.5899 28.8904 42.433 28.8848 42.2756L28.345 27.0908C28.322 26.4439 27.7801 25.9431 27.1322 25.9612C26.9784 25.9667 26.8272 26.0024 26.6872 26.0663C26.5472 26.1302 26.4211 26.2211 26.3162 26.3337C26.2113 26.4463 26.1297 26.5785 26.0759 26.7227C26.0221 26.8669 25.9972 27.0203 26.0026 27.1741L26.5425 42.3589C26.5533 42.6622 26.6814 42.9494 26.8997 43.1602C27.118 43.371 27.4095 43.489 27.713 43.4892ZM19.0548 67.2373C19.1832 67.2843 19.3188 67.3083 19.4555 67.3083C19.7309 67.3081 19.9975 67.2109 20.2084 67.0338C20.4194 66.8566 20.5612 66.6109 20.609 66.3396C20.6569 66.0683 20.6076 65.7889 20.47 65.5503C20.3323 65.3117 20.115 65.1292 19.8562 65.0348C17.2105 64.0722 14.9542 61.6159 14.9172 61.575C14.8139 61.4608 14.6892 61.3682 14.5502 61.3022C14.4111 61.2363 14.2605 61.1984 14.1068 61.1907C13.9531 61.1829 13.7993 61.2056 13.6544 61.2573C13.5094 61.309 13.3761 61.3887 13.2619 61.4919C13.1478 61.5952 13.0551 61.7199 12.9892 61.8589C12.9232 61.998 12.8853 62.1487 12.8776 62.3024C12.8699 62.4561 12.8925 62.6098 12.9442 62.7547C12.9959 62.8997 13.0757 63.033 13.1789 63.1472C13.2862 63.2661 15.8441 66.0691 19.0548 67.2373ZM28.3759 48.2703C28.6867 48.2703 28.9848 48.1468 29.2046 47.9271C29.4243 47.7073 29.5478 47.4092 29.5478 47.0984V46.992C29.5478 46.6812 29.4243 46.3832 29.2046 46.1634C28.9848 45.9436 28.6867 45.8201 28.3759 45.8201C28.0651 45.8201 27.7671 45.9436 27.5473 46.1634C27.3275 46.3832 27.2041 46.6812 27.2041 46.992V47.0984C27.2041 47.7459 27.7287 48.2703 28.3759 48.2703ZM25.488 48.908C25.1772 48.908 24.8791 49.0314 24.6593 49.2512C24.4396 49.471 24.3161 49.769 24.3161 50.0798V50.1862C24.3161 50.497 24.4396 50.7951 24.6593 51.0149C24.8791 51.2346 25.1772 51.3581 25.488 51.3581C25.7988 51.3581 26.0968 51.2346 26.3166 51.0149C26.5364 50.7951 26.6598 50.497 26.6598 50.1862V50.0798C26.6598 49.769 26.5364 49.471 26.3166 49.2512C26.0968 49.0314 25.7988 48.908 25.488 48.908ZM29.2161 56.6067C29.5269 56.6067 29.825 56.4832 30.0447 56.2635C30.2645 56.0437 30.388 55.7456 30.388 55.4348V55.3284C30.388 54.6811 29.8633 54.1566 29.2161 54.1566C28.5689 54.1566 28.0442 54.6811 28.0442 55.3284V55.4348C28.0442 55.7456 28.1677 56.0437 28.3874 56.2635C28.6072 56.4832 28.9053 56.6067 29.2161 56.6067Z" fill="#001E1D"/>
</g>
<defs>
<clipPath id="clip0_287_781">
<rect width="80" height="80" fill="white"/>
</clipPath>
</defs>
</svg>
