<svg width="80" height="80" viewBox="0 0 80 80" fill="none" xmlns="http://www.w3.org/2000/svg">
<g clip-path="url(#clip0_287_814)">
<mask id="mask0_287_814" style="mask-type:luminance" maskUnits="userSpaceOnUse" x="0" y="0" width="80" height="80">
<path d="M0 0.000236511H79.9998V80H0V0.000236511Z" fill="white"/>
</mask>
<g mask="url(#mask0_287_814)">
<path d="M36.3205 12.7282H25.4612C24.6418 12.7282 23.8409 12.972 23.1605 13.4285C22.48 13.8851 21.9509 14.5338 21.6402 15.2921L15.8751 29.3675C15.0289 31.4337 14.909 33.7259 15.535 35.8691C15.7854 36.7261 16.9573 36.8311 17.3559 36.032L25.3807 19.9435C25.5386 19.6268 25.7816 19.3604 26.0825 19.1742C26.3834 18.988 26.7303 18.8894 27.0841 18.8894H36.3205V12.7282Z" fill="#489634" stroke="#001E1D" stroke-width="2.27"/>
<path d="M42.3264 3.40026V14.1976" stroke="#001E1D" stroke-width="2.27" stroke-miterlimit="10" stroke-linecap="round" stroke-linejoin="round"/>
<path d="M59.2767 18.0091H49.4806V13.27H59.2767V18.0091Z" fill="#C2D0DA" stroke="#001E1D" stroke-width="2.27"/>
<path d="M51.6805 28.3307L48.5191 13.0665H36.1341L32.9727 28.3307L36.1341 32.546H48.5191L51.6805 28.3307Z" fill="#8DC57F" stroke="#001E1D" stroke-width="2.27"/>
<path d="M48.5189 13.0663H42.5752L45.7366 28.3305H46.9533L49.1038 28.3304L51.6803 28.3305L48.5189 13.0663Z" fill="#489634"/>
<path d="M49.3883 19.6846H35.2649C34.9179 19.6845 34.5851 19.5466 34.3397 19.3012C34.0943 19.0558 33.9565 18.723 33.9565 18.376V12.9033C33.9565 12.5563 34.0943 12.2235 34.3397 11.9781C34.5851 11.7328 34.9179 11.5949 35.2649 11.5949H49.3883C49.7353 11.5949 50.0681 11.7328 50.3135 11.9781C50.5589 12.2235 50.6967 12.5563 50.6967 12.9033V18.376C50.6967 18.723 50.5589 19.0558 50.3135 19.3012C50.0681 19.5466 49.7353 19.6845 49.3883 19.6846Z" fill="#5B8151" stroke="#001E1D" stroke-width="2.27"/>
<path d="M60.5201 18.8546H56.2775C56.097 18.8546 55.9239 18.7829 55.7962 18.6553C55.6686 18.5276 55.5969 18.3545 55.5969 18.174V13.1053C55.5969 13.0159 55.6145 12.9274 55.6487 12.8448C55.6829 12.7622 55.733 12.6872 55.7962 12.624C55.8594 12.5608 55.9345 12.5107 56.017 12.4765C56.0996 12.4424 56.1881 12.4248 56.2775 12.4248H60.5201C61.4753 12.4248 62.2497 13.1992 62.2497 14.1543V17.1251C62.2497 18.0802 61.4753 18.8546 60.5201 18.8546Z" fill="#5B8151" stroke="#001E1D" stroke-width="2.27"/>
<path d="M41.1611 46.7414C42.0874 46.4876 43.065 46.4876 43.9914 46.7414L46.1615 47.3351V45.3798C46.1615 43.3998 44.5564 41.7947 42.5764 41.7947C40.5961 41.7947 38.9909 43.3998 38.9909 45.3798V47.3351L41.1611 46.7414Z" stroke="#001E1D" stroke-width="2.27"/>
<path d="M47.4419 47.6853L43.9914 46.7414C43.0651 46.4876 42.0875 46.4876 41.1611 46.7414L37.7107 47.6853C37.229 47.817 36.8039 48.1034 36.5009 48.5005C36.1979 48.8975 36.0338 49.383 36.0338 49.8824V55.9315C36.0338 59.5448 38.963 62.4738 42.5761 62.4738C46.1894 62.4738 49.1186 59.5448 49.1186 55.9315V49.8824C49.1187 49.383 48.9546 48.8975 48.6516 48.5005C48.3487 48.1035 47.9236 47.817 47.4419 47.6853Z" stroke="#001E1D" stroke-width="2.27"/>
<path d="M47.341 5.62836H37.3121C36.1619 5.62836 35.4515 4.37336 36.0435 3.38696L36.7246 2.25259C36.9223 1.92302 37.202 1.65028 37.5365 1.46093C37.8709 1.27159 38.2487 1.17208 38.633 1.17212H46.02C46.8018 1.17212 47.5263 1.58212 47.9286 2.25259L48.6096 3.38696C49.2016 4.37336 48.4911 5.62836 47.341 5.62836Z" fill="#586B76" stroke="#001E1D" stroke-width="2.27"/>
<path d="M58.9233 65.0316V40.1226C58.9233 35.1414 56.1234 30.5828 51.6805 28.3305" stroke="#001E1D" stroke-width="2.27" stroke-miterlimit="10" stroke-linecap="round" stroke-linejoin="round"/>
<path d="M26.3655 36.0714C25.944 37.3805 25.7295 38.7475 25.7299 40.1228V72.8568C25.7299 76.1547 28.4033 78.8283 31.7013 78.8283H34.0716C35.218 78.8283 36.3398 78.4963 37.3014 77.8722L39.0968 76.7074C40.0584 76.0834 41.1802 75.7514 42.3265 75.7514C43.4728 75.7514 44.5946 76.0834 45.5563 76.7074L47.3516 77.8722C48.3132 78.4962 49.4349 78.8283 50.5813 78.8283H52.9516C56.2495 78.8283 58.9231 76.1547 58.9231 72.8568V70.5786" stroke="#001E1D" stroke-width="2.27" stroke-miterlimit="10" stroke-linecap="round" stroke-linejoin="round"/>
<path d="M32.9726 28.3306C31.5115 29.0709 30.2008 30.0766 29.1075 31.2963" stroke="#001E1D" stroke-width="2.27" stroke-miterlimit="10" stroke-linecap="round" stroke-linejoin="round"/>
<path d="M34.7823 19.5927L32.9725 28.3306H51.6802L49.8705 19.5927" stroke="#001E1D" stroke-width="2.27" stroke-miterlimit="10" stroke-linecap="round" stroke-linejoin="round"/>
<path d="M49.1186 49.8823L51.5633 47.9108C51.7862 47.7309 51.966 47.5035 52.0896 47.2451C52.2132 46.9867 52.2773 46.7039 52.2773 46.4175V44.6764" stroke="#001E1D" stroke-width="2.27" stroke-miterlimit="10" stroke-linecap="round" stroke-linejoin="round"/>
<path d="M48.7654 58.0529L51.5902 60.4178C51.8053 60.5978 51.9784 60.8228 52.0971 61.0769C52.2158 61.3311 52.2774 61.6082 52.2774 61.8887V63.5692" stroke="#001E1D" stroke-width="2.27" stroke-miterlimit="10" stroke-linecap="round" stroke-linejoin="round"/>
<path d="M49.1186 53.3771H52.058C52.4636 53.3771 52.8589 53.5057 53.187 53.7446L54.3044 54.558" stroke="#001E1D" stroke-width="2.27" stroke-miterlimit="10" stroke-linecap="round" stroke-linejoin="round"/>
<path d="M36.0319 49.8823L33.5872 47.9108C33.3643 47.731 33.1844 47.5035 33.0608 47.2451C32.9373 46.9867 32.8731 46.7039 32.8732 46.4175V44.6764" stroke="#001E1D" stroke-width="2.27" stroke-miterlimit="10" stroke-linecap="round" stroke-linejoin="round"/>
<path d="M36.3852 58.0529L33.5602 60.4178C33.3451 60.5978 33.1721 60.8228 33.0534 61.077C32.9347 61.3311 32.8732 61.6082 32.8732 61.8887V63.5692" stroke="#001E1D" stroke-width="2.27" stroke-miterlimit="10" stroke-linecap="round" stroke-linejoin="round"/>
<path d="M36.0318 53.3771H33.0925C32.6867 53.3771 32.2915 53.5057 31.9634 53.7446L30.8461 54.558" stroke="#001E1D" stroke-width="2.27" stroke-miterlimit="10" stroke-linecap="round" stroke-linejoin="round"/>
</g>
</g>
<defs>
<clipPath id="clip0_287_814">
<rect width="80" height="80" fill="white"/>
</clipPath>
</defs>
</svg>
