<svg width="15" height="15" viewBox="0 0 15 15" fill="none" xmlns="http://www.w3.org/2000/svg">
<path d="M13.75 8.53963H8.54171V13.748C8.54171 14.0242 8.43196 14.2892 8.23661 14.4845C8.04126 14.6799 7.77631 14.7896 7.50004 14.7896C7.22377 14.7896 6.95882 14.6799 6.76347 14.4845C6.56812 14.2892 6.45837 14.0242 6.45837 13.748V8.53963H1.25004C0.973773 8.53963 0.708822 8.42988 0.513471 8.23453C0.318121 8.03918 0.208374 7.77423 0.208374 7.49797C0.208374 7.2217 0.318121 6.95675 0.513471 6.7614C0.708822 6.56605 0.973773 6.4563 1.25004 6.4563H6.45837V1.24797C6.45837 0.971698 6.56812 0.706746 6.76347 0.511396C6.95882 0.316045 7.22377 0.206299 7.50004 0.206299C7.77631 0.206299 8.04126 0.316045 8.23661 0.511396C8.43196 0.706746 8.54171 0.971698 8.54171 1.24797V6.4563H13.75C14.0263 6.4563 14.2913 6.56605 14.4866 6.7614C14.682 6.95675 14.7917 7.2217 14.7917 7.49797C14.7917 7.77423 14.682 8.03918 14.4866 8.23453C14.2913 8.42988 14.0263 8.53963 13.75 8.53963Z" fill="#F9BC60"/>
</svg>
