<svg width="11" height="18" viewBox="0 0 11 18" fill="none" xmlns="http://www.w3.org/2000/svg">
<path d="M0.937235 17.0745C0.659457 16.7967 0.520569 16.4432 0.520569 16.0139C0.520569 15.5846 0.659457 15.2311 0.937235 14.9533L6.84633 9.04419L0.937235 3.13511C0.659457 2.85733 0.520569 2.50379 0.520569 2.0745C0.520569 1.64521 0.659457 1.29167 0.937235 1.01389C1.21501 0.736117 1.56855 0.597229 1.99784 0.597229C2.42713 0.597229 2.78067 0.736117 3.05845 1.01389L10.0281 7.98358C10.1797 8.1351 10.2872 8.29924 10.3509 8.47601C10.4135 8.65278 10.4448 8.84217 10.4448 9.04419C10.4448 9.24621 10.4135 9.4356 10.3509 9.61237C10.2872 9.78914 10.1797 9.95328 10.0281 10.1048L3.05845 17.0745C2.78067 17.3523 2.42713 17.4912 1.99784 17.4912C1.56855 17.4912 1.21501 17.3523 0.937235 17.0745Z" fill="white"/>
</svg>
