<svg width="13" height="8" viewBox="0 0 13 8" fill="none" xmlns="http://www.w3.org/2000/svg">
<g clip-path="url(#clip0_176_2455)">
<path d="M6.50001 7.59895C6.36112 7.59895 6.22675 7.57291 6.09688 7.52082C5.96633 7.46874 5.85765 7.39929 5.77084 7.31249L0.979176 2.52082C0.788204 2.32985 0.692719 2.08679 0.692719 1.79166C0.692719 1.49652 0.788204 1.25346 0.979176 1.06249C1.17015 0.871517 1.4132 0.776031 1.70834 0.776031C2.00348 0.776031 2.24654 0.871517 2.43751 1.06249L6.50001 5.12499L10.5625 1.06249C10.7535 0.871517 10.9965 0.776031 11.2917 0.776031C11.5868 0.776031 11.8299 0.871517 12.0208 1.06249C12.2118 1.25346 12.3073 1.49652 12.3073 1.79166C12.3073 2.08679 12.2118 2.32985 12.0208 2.52082L7.22918 7.31249C7.12501 7.41666 7.01216 7.49027 6.89063 7.53332C6.76911 7.57707 6.6389 7.59895 6.50001 7.59895Z" fill="#001E1D"/>
</g>
<defs>
<clipPath id="clip0_176_2455">
<rect width="13" height="8" fill="white"/>
</clipPath>
</defs>
</svg>
