<svg width="22" height="22" viewBox="0 0 22 22" fill="none" xmlns="http://www.w3.org/2000/svg">
<path d="M7.97498 15.8583C7.80693 15.6903 7.7229 15.4764 7.7229 15.2167C7.7229 14.9569 7.80693 14.7431 7.97498 14.575L11.55 11L7.97498 7.425C7.80693 7.25695 7.7229 7.04306 7.7229 6.78334C7.7229 6.52362 7.80693 6.30973 7.97498 6.14167C8.14304 5.97361 8.35693 5.88959 8.61665 5.88959C8.87637 5.88959 9.09026 5.97361 9.25832 6.14167L13.475 10.3583C13.5666 10.45 13.6317 10.5493 13.6702 10.6563C13.7081 10.7632 13.7271 10.8778 13.7271 11C13.7271 11.1222 13.7081 11.2368 13.6702 11.3438C13.6317 11.4507 13.5666 11.55 13.475 11.6417L9.25832 15.8583C9.09026 16.0264 8.87637 16.1104 8.61665 16.1104C8.35693 16.1104 8.14304 16.0264 7.97498 15.8583Z" fill="#001E1D" fill-opacity="0.53"/>
</svg>
