<svg width="17" height="12" viewBox="0 0 17 12" fill="none" xmlns="http://www.w3.org/2000/svg">
<path d="M9.88488 11.2979C9.68221 11.0953 9.58493 10.8504 9.59304 10.5633C9.60182 10.2762 9.70755 10.0313 9.91021 9.82862L12.7728 6.966H1.47437C1.18727 6.966 0.946437 6.86873 0.751881 6.67417C0.558 6.48029 0.46106 6.2398 0.46106 5.95269C0.46106 5.66559 0.558 5.42475 0.751881 5.2302C0.946437 5.03632 1.18727 4.93938 1.47437 4.93938H12.7728L9.88488 2.05143C9.68221 1.84877 9.58088 1.60794 9.58088 1.32894C9.58088 1.05062 9.68221 0.810123 9.88488 0.607461C10.0875 0.404798 10.3284 0.303467 10.6074 0.303467C10.8857 0.303467 11.1262 0.404798 11.3288 0.607461L15.9648 5.24337C16.0661 5.3447 16.138 5.45448 16.1806 5.5727C16.2225 5.69092 16.2434 5.81758 16.2434 5.95269C16.2434 6.0878 16.2225 6.21446 16.1806 6.33268C16.138 6.4509 16.0661 6.56068 15.9648 6.66201L11.3035 11.3233C11.1177 11.509 10.8857 11.6019 10.6074 11.6019C10.3284 11.6019 10.0875 11.5006 9.88488 11.2979Z" fill="white"/>
</svg>
