<svg width="11" height="18" viewBox="0 0 11 18" fill="none" xmlns="http://www.w3.org/2000/svg">
<path d="M10.0793 17.0745C10.3571 16.7967 10.496 16.4432 10.496 16.0139C10.496 15.5846 10.3571 15.2311 10.0793 14.9533L4.17021 9.04419L10.0793 3.13511C10.3571 2.85733 10.496 2.50379 10.496 2.0745C10.496 1.64521 10.3571 1.29167 10.0793 1.01389C9.80153 0.736117 9.44799 0.597229 9.0187 0.597229C8.58941 0.597229 8.23587 0.736117 7.95809 1.01389L0.988398 7.98358C0.836883 8.1351 0.729306 8.29924 0.665669 8.47601C0.603044 8.65278 0.57173 8.84217 0.57173 9.04419C0.57173 9.24621 0.603044 9.4356 0.665669 9.61237C0.729306 9.78914 0.836883 9.95328 0.988398 10.1048L7.95809 17.0745C8.23587 17.3523 8.58941 17.4912 9.0187 17.4912C9.44799 17.4912 9.80153 17.3523 10.0793 17.0745Z" fill="#003735" fill-opacity="0.37"/>
</svg>
