<svg width="20" height="20" viewBox="0 0 20 20" fill="none" xmlns="http://www.w3.org/2000/svg">
<path d="M16.6667 4.16667H14.025L12.5 2.5H7.49999L5.97499 4.16667H3.33332C2.41666 4.16667 1.66666 4.91667 1.66666 5.83333V15.8333C1.66666 16.75 2.41666 17.5 3.33332 17.5H16.6667C17.5833 17.5 18.3333 16.75 18.3333 15.8333V5.83333C18.3333 4.91667 17.5833 4.16667 16.6667 4.16667ZM9.99999 15C7.69999 15 5.83332 13.1333 5.83332 10.8333H4.16666L6.24999 8.75L8.33332 10.8333H6.66666C6.66666 12.675 8.15832 14.1667 9.99999 14.1667C10.4833 14.1667 10.9417 14.0583 11.35 13.875L11.9667 14.4917C11.375 14.8 10.7167 15 9.99999 15ZM13.75 12.9167L11.6667 10.8333H13.3333C13.3333 8.99167 11.8417 7.5 9.99999 7.5C9.51666 7.5 9.05832 7.60833 8.64999 7.79167L8.03332 7.18333C8.62499 6.86667 9.28332 6.66667 9.99999 6.66667C12.3 6.66667 14.1667 8.53333 14.1667 10.8333H15.8333L13.75 12.9167Z" fill="#001E1D"/>
</svg>
