<svg width="17" height="19" viewBox="0 0 17 19" fill="none" xmlns="http://www.w3.org/2000/svg">
<g clip-path="url(#clip0_176_1440)">
<mask id="path-1-outside-1_176_1440" maskUnits="userSpaceOnUse" x="-0.196533" y="0.42453" width="17" height="18" fill="black">
<rect fill="white" x="-0.196533" y="0.42453" width="17" height="18"/>
<path d="M6.2711 1.42455H2.37079C1.95512 1.42455 1.55647 1.59996 1.26255 1.9122C0.968625 2.22444 0.8035 2.64792 0.8035 3.08949V7.23008C0.802149 7.44964 0.841692 7.66731 0.91985 7.87057C0.998009 8.07383 1.11324 8.25866 1.25891 8.41441C1.40458 8.57017 1.57782 8.69379 1.76864 8.77814C1.95946 8.86249 2.16411 8.90591 2.37079 8.9059H6.2711C6.47843 8.90699 6.6839 8.86436 6.87562 8.7805C7.06733 8.69663 7.24147 8.57318 7.38796 8.41732C7.53445 8.26145 7.65037 8.07626 7.729 7.87246C7.80764 7.66867 7.84743 7.45033 7.84608 7.23008V3.08949C7.84608 2.87016 7.80529 2.65299 7.72604 2.45046C7.6468 2.24792 7.53067 2.06402 7.38431 1.90931C7.23796 1.75459 7.06428 1.63213 6.87324 1.54894C6.6822 1.46575 6.47757 1.42348 6.2711 1.42455ZM7.0778 7.23008C7.07917 7.34315 7.05925 7.45537 7.01923 7.56015C6.97921 7.66493 6.91988 7.76016 6.84473 7.84024C6.76958 7.92032 6.68013 7.98365 6.58162 8.0265C6.48311 8.06935 6.37754 8.09085 6.2711 8.08976H2.37079C2.265 8.08977 2.16025 8.06746 2.06264 8.02412C1.96503 7.98079 1.87648 7.91729 1.80215 7.83732C1.72782 7.75734 1.66918 7.66248 1.62964 7.55824C1.59009 7.454 1.57042 7.34246 1.57178 7.23008V3.08949C1.57178 2.86438 1.65596 2.64848 1.80581 2.4893C1.95565 2.33013 2.15888 2.2407 2.37079 2.2407H6.2711C6.37667 2.23962 6.4814 2.26078 6.57923 2.30295C6.67706 2.34512 6.76605 2.40748 6.84106 2.4864C6.91607 2.56533 6.97561 2.65926 7.01625 2.76278C7.05688 2.86629 7.0778 2.97734 7.0778 3.08949V7.23008ZM14.4302 1.42455H10.3609C10.1655 1.42348 9.97191 1.46343 9.79112 1.5421C9.61033 1.62078 9.44596 1.73664 9.30746 1.88301C9.16896 2.02939 9.05905 2.20339 8.98405 2.39504C8.90905 2.58668 8.87045 2.79217 8.87045 2.99972V7.31986C8.86875 7.52841 8.90612 7.73525 8.98039 7.92832C9.05465 8.12138 9.16434 8.29683 9.30304 8.44443C9.44175 8.59203 9.60672 8.70885 9.78833 8.78808C9.96995 8.8673 10.1646 8.90736 10.3609 8.9059H14.4302C14.8235 8.9059 15.2007 8.73995 15.4787 8.44455C15.7568 8.14915 15.913 7.7485 15.913 7.33074V2.99972C15.9123 2.58218 15.7559 2.18195 15.478 1.8867C15.2001 1.59146 14.8233 1.42527 14.4302 1.42455ZM15.1447 7.31986C15.1461 7.42045 15.1286 7.52032 15.0933 7.61366C15.058 7.70701 15.0056 7.79198 14.9391 7.86361C14.8726 7.93525 14.7934 7.99213 14.7061 8.03096C14.6187 8.06978 14.5249 8.08977 14.4302 8.08976H10.3609C10.2656 8.09086 10.171 8.07167 10.0827 8.03334C9.99448 7.995 9.91434 7.93829 9.84704 7.86654C9.77973 7.79479 9.72663 7.70946 9.69086 7.61557C9.65508 7.52168 9.63736 7.42114 9.63873 7.31986V2.99972C9.63873 2.89935 9.65746 2.79998 9.69385 2.70736C9.73023 2.61473 9.78355 2.53069 9.85071 2.4601C9.91788 2.38951 9.99755 2.33378 10.0851 2.29612C10.1727 2.25846 10.2664 2.23962 10.3609 2.2407H14.4302C14.6197 2.2407 14.8015 2.32067 14.9355 2.46301C15.0695 2.60535 15.1447 2.79841 15.1447 2.99972V7.31986ZM6.2711 9.9941H2.37079C2.16433 9.9941 1.95989 10.0374 1.76924 10.1216C1.57858 10.2058 1.40546 10.3292 1.25982 10.4846C1.11419 10.6401 0.998902 10.8246 0.920591 11.0276C0.84228 11.2305 0.802488 11.4479 0.8035 11.6672V15.8105C0.804177 16.2519 0.96952 16.6749 1.2633 16.987C1.55708 17.2991 1.95533 17.4747 2.37079 17.4755H6.2711C6.47757 17.4765 6.6822 17.4343 6.87324 17.3511C7.06428 17.2679 7.23796 17.1454 7.38431 16.9907C7.53067 16.836 7.6468 16.6521 7.72604 16.4495C7.80529 16.247 7.84608 16.0298 7.84608 15.8105V11.6672C7.84709 11.4472 7.80705 11.2291 7.72826 11.0257C7.64947 10.8222 7.5335 10.6373 7.38705 10.4817C7.24059 10.3262 7.06656 10.203 6.87502 10.1193C6.68348 10.0356 6.47821 9.99302 6.2711 9.9941ZM7.0778 15.8105C7.0778 16.0352 6.99397 16.2506 6.84468 16.4097C6.69539 16.5688 6.49281 16.6586 6.28134 16.6593H2.37079C2.15888 16.6593 1.95565 16.5699 1.80581 16.4107C1.65596 16.2515 1.57178 16.0356 1.57178 15.8105V11.6672C1.57077 11.5551 1.59068 11.4438 1.63038 11.3399C1.67008 11.236 1.72878 11.1414 1.80307 11.0617C1.87737 10.982 1.96579 10.9188 2.06324 10.8756C2.16068 10.8325 2.26522 10.8102 2.37079 10.8102H6.2711C6.37732 10.8092 6.48268 10.8306 6.58102 10.8733C6.67936 10.9159 6.76869 10.979 6.84381 11.0588C6.91892 11.1386 6.9783 11.2335 7.01848 11.338C7.05866 11.4424 7.07882 11.5544 7.0778 11.6672V15.8105ZM14.4302 9.9941H10.3609C10.1648 9.99265 9.97038 10.0326 9.78893 10.1117C9.60749 10.1907 9.44264 10.3073 9.30396 10.4546C9.16529 10.6019 9.05555 10.7771 8.98113 10.9698C8.90671 11.1626 8.86909 11.3691 8.87045 11.5774V15.9003C8.87045 16.3176 9.02632 16.7178 9.30384 17.0131C9.58136 17.3085 9.95786 17.4747 10.3507 17.4755H14.4302C14.8233 17.4747 15.2001 17.3085 15.478 17.0133C15.7559 16.7181 15.9123 16.3178 15.913 15.9003V11.5774C15.914 11.3699 15.8764 11.1642 15.8024 10.9721C15.7283 10.7801 15.6192 10.6055 15.4815 10.4583C15.3437 10.3112 15.1799 10.1944 14.9995 10.1148C14.8191 10.0351 14.6256 9.9941 14.4302 9.9941ZM15.1447 15.9003C15.1447 16.1016 15.0695 16.2947 14.9355 16.437C14.8015 16.5793 14.6197 16.6593 14.4302 16.6593H10.3609C10.2664 16.6604 10.1727 16.6416 10.0851 16.6039C9.99755 16.5662 9.91788 16.5105 9.85071 16.4399C9.78355 16.3693 9.73023 16.2853 9.69385 16.1926C9.65746 16.1 9.63873 16.0007 9.63873 15.9003V11.5774C9.6377 11.4764 9.65568 11.3761 9.69161 11.2826C9.72754 11.189 9.7807 11.104 9.84796 11.0325C9.91523 10.9611 9.99525 10.9046 10.0833 10.8664C10.1714 10.8283 10.2658 10.8092 10.3609 10.8102H14.4302C14.6193 10.8102 14.8006 10.8898 14.9346 11.0316C15.0685 11.1734 15.1441 11.3657 15.1447 11.5665V15.9003Z"/>
</mask>
<path d="M6.2711 1.42455H2.37079C1.95512 1.42455 1.55647 1.59996 1.26255 1.9122C0.968625 2.22444 0.8035 2.64792 0.8035 3.08949V7.23008C0.802149 7.44964 0.841692 7.66731 0.91985 7.87057C0.998009 8.07383 1.11324 8.25866 1.25891 8.41441C1.40458 8.57017 1.57782 8.69379 1.76864 8.77814C1.95946 8.86249 2.16411 8.90591 2.37079 8.9059H6.2711C6.47843 8.90699 6.6839 8.86436 6.87562 8.7805C7.06733 8.69663 7.24147 8.57318 7.38796 8.41732C7.53445 8.26145 7.65037 8.07626 7.729 7.87246C7.80764 7.66867 7.84743 7.45033 7.84608 7.23008V3.08949C7.84608 2.87016 7.80529 2.65299 7.72604 2.45046C7.6468 2.24792 7.53067 2.06402 7.38431 1.90931C7.23796 1.75459 7.06428 1.63213 6.87324 1.54894C6.6822 1.46575 6.47757 1.42348 6.2711 1.42455ZM7.0778 7.23008C7.07917 7.34315 7.05925 7.45537 7.01923 7.56015C6.97921 7.66493 6.91988 7.76016 6.84473 7.84024C6.76958 7.92032 6.68013 7.98365 6.58162 8.0265C6.48311 8.06935 6.37754 8.09085 6.2711 8.08976H2.37079C2.265 8.08977 2.16025 8.06746 2.06264 8.02412C1.96503 7.98079 1.87648 7.91729 1.80215 7.83732C1.72782 7.75734 1.66918 7.66248 1.62964 7.55824C1.59009 7.454 1.57042 7.34246 1.57178 7.23008V3.08949C1.57178 2.86438 1.65596 2.64848 1.80581 2.4893C1.95565 2.33013 2.15888 2.2407 2.37079 2.2407H6.2711C6.37667 2.23962 6.4814 2.26078 6.57923 2.30295C6.67706 2.34512 6.76605 2.40748 6.84106 2.4864C6.91607 2.56533 6.97561 2.65926 7.01625 2.76278C7.05688 2.86629 7.0778 2.97734 7.0778 3.08949V7.23008ZM14.4302 1.42455H10.3609C10.1655 1.42348 9.97191 1.46343 9.79112 1.5421C9.61033 1.62078 9.44596 1.73664 9.30746 1.88301C9.16896 2.02939 9.05905 2.20339 8.98405 2.39504C8.90905 2.58668 8.87045 2.79217 8.87045 2.99972V7.31986C8.86875 7.52841 8.90612 7.73525 8.98039 7.92832C9.05465 8.12138 9.16434 8.29683 9.30304 8.44443C9.44175 8.59203 9.60672 8.70885 9.78833 8.78808C9.96995 8.8673 10.1646 8.90736 10.3609 8.9059H14.4302C14.8235 8.9059 15.2007 8.73995 15.4787 8.44455C15.7568 8.14915 15.913 7.7485 15.913 7.33074V2.99972C15.9123 2.58218 15.7559 2.18195 15.478 1.8867C15.2001 1.59146 14.8233 1.42527 14.4302 1.42455ZM15.1447 7.31986C15.1461 7.42045 15.1286 7.52032 15.0933 7.61366C15.058 7.70701 15.0056 7.79198 14.9391 7.86361C14.8726 7.93525 14.7934 7.99213 14.7061 8.03096C14.6187 8.06978 14.5249 8.08977 14.4302 8.08976H10.3609C10.2656 8.09086 10.171 8.07167 10.0827 8.03334C9.99448 7.995 9.91434 7.93829 9.84704 7.86654C9.77973 7.79479 9.72663 7.70946 9.69086 7.61557C9.65508 7.52168 9.63736 7.42114 9.63873 7.31986V2.99972C9.63873 2.89935 9.65746 2.79998 9.69385 2.70736C9.73023 2.61473 9.78355 2.53069 9.85071 2.4601C9.91788 2.38951 9.99755 2.33378 10.0851 2.29612C10.1727 2.25846 10.2664 2.23962 10.3609 2.2407H14.4302C14.6197 2.2407 14.8015 2.32067 14.9355 2.46301C15.0695 2.60535 15.1447 2.79841 15.1447 2.99972V7.31986ZM6.2711 9.9941H2.37079C2.16433 9.9941 1.95989 10.0374 1.76924 10.1216C1.57858 10.2058 1.40546 10.3292 1.25982 10.4846C1.11419 10.6401 0.998902 10.8246 0.920591 11.0276C0.84228 11.2305 0.802488 11.4479 0.8035 11.6672V15.8105C0.804177 16.2519 0.96952 16.6749 1.2633 16.987C1.55708 17.2991 1.95533 17.4747 2.37079 17.4755H6.2711C6.47757 17.4765 6.6822 17.4343 6.87324 17.3511C7.06428 17.2679 7.23796 17.1454 7.38431 16.9907C7.53067 16.836 7.6468 16.6521 7.72604 16.4495C7.80529 16.247 7.84608 16.0298 7.84608 15.8105V11.6672C7.84709 11.4472 7.80705 11.2291 7.72826 11.0257C7.64947 10.8222 7.5335 10.6373 7.38705 10.4817C7.24059 10.3262 7.06656 10.203 6.87502 10.1193C6.68348 10.0356 6.47821 9.99302 6.2711 9.9941ZM7.0778 15.8105C7.0778 16.0352 6.99397 16.2506 6.84468 16.4097C6.69539 16.5688 6.49281 16.6586 6.28134 16.6593H2.37079C2.15888 16.6593 1.95565 16.5699 1.80581 16.4107C1.65596 16.2515 1.57178 16.0356 1.57178 15.8105V11.6672C1.57077 11.5551 1.59068 11.4438 1.63038 11.3399C1.67008 11.236 1.72878 11.1414 1.80307 11.0617C1.87737 10.982 1.96579 10.9188 2.06324 10.8756C2.16068 10.8325 2.26522 10.8102 2.37079 10.8102H6.2711C6.37732 10.8092 6.48268 10.8306 6.58102 10.8733C6.67936 10.9159 6.76869 10.979 6.84381 11.0588C6.91892 11.1386 6.9783 11.2335 7.01848 11.338C7.05866 11.4424 7.07882 11.5544 7.0778 11.6672V15.8105ZM14.4302 9.9941H10.3609C10.1648 9.99265 9.97038 10.0326 9.78893 10.1117C9.60749 10.1907 9.44264 10.3073 9.30396 10.4546C9.16529 10.6019 9.05555 10.7771 8.98113 10.9698C8.90671 11.1626 8.86909 11.3691 8.87045 11.5774V15.9003C8.87045 16.3176 9.02632 16.7178 9.30384 17.0131C9.58136 17.3085 9.95786 17.4747 10.3507 17.4755H14.4302C14.8233 17.4747 15.2001 17.3085 15.478 17.0133C15.7559 16.7181 15.9123 16.3178 15.913 15.9003V11.5774C15.914 11.3699 15.8764 11.1642 15.8024 10.9721C15.7283 10.7801 15.6192 10.6055 15.4815 10.4583C15.3437 10.3112 15.1799 10.1944 14.9995 10.1148C14.8191 10.0351 14.6256 9.9941 14.4302 9.9941ZM15.1447 15.9003C15.1447 16.1016 15.0695 16.2947 14.9355 16.437C14.8015 16.5793 14.6197 16.6593 14.4302 16.6593H10.3609C10.2664 16.6604 10.1727 16.6416 10.0851 16.6039C9.99755 16.5662 9.91788 16.5105 9.85071 16.4399C9.78355 16.3693 9.73023 16.2853 9.69385 16.1926C9.65746 16.1 9.63873 16.0007 9.63873 15.9003V11.5774C9.6377 11.4764 9.65568 11.3761 9.69161 11.2826C9.72754 11.189 9.7807 11.104 9.84796 11.0325C9.91523 10.9611 9.99525 10.9046 10.0833 10.8664C10.1714 10.8283 10.2658 10.8092 10.3609 10.8102H14.4302C14.6193 10.8102 14.8006 10.8898 14.9346 11.0316C15.0685 11.1734 15.1441 11.3657 15.1447 11.5665V15.9003Z" fill="#FFFFFE"/>
<path d="M6.2711 1.42455H2.37079C1.95512 1.42455 1.55647 1.59996 1.26255 1.9122C0.968625 2.22444 0.8035 2.64792 0.8035 3.08949V7.23008C0.802149 7.44964 0.841692 7.66731 0.91985 7.87057C0.998009 8.07383 1.11324 8.25866 1.25891 8.41441C1.40458 8.57017 1.57782 8.69379 1.76864 8.77814C1.95946 8.86249 2.16411 8.90591 2.37079 8.9059H6.2711C6.47843 8.90699 6.6839 8.86436 6.87562 8.7805C7.06733 8.69663 7.24147 8.57318 7.38796 8.41732C7.53445 8.26145 7.65037 8.07626 7.729 7.87246C7.80764 7.66867 7.84743 7.45033 7.84608 7.23008V3.08949C7.84608 2.87016 7.80529 2.65299 7.72604 2.45046C7.6468 2.24792 7.53067 2.06402 7.38431 1.90931C7.23796 1.75459 7.06428 1.63213 6.87324 1.54894C6.6822 1.46575 6.47757 1.42348 6.2711 1.42455ZM7.0778 7.23008C7.07917 7.34315 7.05925 7.45537 7.01923 7.56015C6.97921 7.66493 6.91988 7.76016 6.84473 7.84024C6.76958 7.92032 6.68013 7.98365 6.58162 8.0265C6.48311 8.06935 6.37754 8.09085 6.2711 8.08976H2.37079C2.265 8.08977 2.16025 8.06746 2.06264 8.02412C1.96503 7.98079 1.87648 7.91729 1.80215 7.83732C1.72782 7.75734 1.66918 7.66248 1.62964 7.55824C1.59009 7.454 1.57042 7.34246 1.57178 7.23008V3.08949C1.57178 2.86438 1.65596 2.64848 1.80581 2.4893C1.95565 2.33013 2.15888 2.2407 2.37079 2.2407H6.2711C6.37667 2.23962 6.4814 2.26078 6.57923 2.30295C6.67706 2.34512 6.76605 2.40748 6.84106 2.4864C6.91607 2.56533 6.97561 2.65926 7.01625 2.76278C7.05688 2.86629 7.0778 2.97734 7.0778 3.08949V7.23008ZM14.4302 1.42455H10.3609C10.1655 1.42348 9.97191 1.46343 9.79112 1.5421C9.61033 1.62078 9.44596 1.73664 9.30746 1.88301C9.16896 2.02939 9.05905 2.20339 8.98405 2.39504C8.90905 2.58668 8.87045 2.79217 8.87045 2.99972V7.31986C8.86875 7.52841 8.90612 7.73525 8.98039 7.92832C9.05465 8.12138 9.16434 8.29683 9.30304 8.44443C9.44175 8.59203 9.60672 8.70885 9.78833 8.78808C9.96995 8.8673 10.1646 8.90736 10.3609 8.9059H14.4302C14.8235 8.9059 15.2007 8.73995 15.4787 8.44455C15.7568 8.14915 15.913 7.7485 15.913 7.33074V2.99972C15.9123 2.58218 15.7559 2.18195 15.478 1.8867C15.2001 1.59146 14.8233 1.42527 14.4302 1.42455ZM15.1447 7.31986C15.1461 7.42045 15.1286 7.52032 15.0933 7.61366C15.058 7.70701 15.0056 7.79198 14.9391 7.86361C14.8726 7.93525 14.7934 7.99213 14.7061 8.03096C14.6187 8.06978 14.5249 8.08977 14.4302 8.08976H10.3609C10.2656 8.09086 10.171 8.07167 10.0827 8.03334C9.99448 7.995 9.91434 7.93829 9.84704 7.86654C9.77973 7.79479 9.72663 7.70946 9.69086 7.61557C9.65508 7.52168 9.63736 7.42114 9.63873 7.31986V2.99972C9.63873 2.89935 9.65746 2.79998 9.69385 2.70736C9.73023 2.61473 9.78355 2.53069 9.85071 2.4601C9.91788 2.38951 9.99755 2.33378 10.0851 2.29612C10.1727 2.25846 10.2664 2.23962 10.3609 2.2407H14.4302C14.6197 2.2407 14.8015 2.32067 14.9355 2.46301C15.0695 2.60535 15.1447 2.79841 15.1447 2.99972V7.31986ZM6.2711 9.9941H2.37079C2.16433 9.9941 1.95989 10.0374 1.76924 10.1216C1.57858 10.2058 1.40546 10.3292 1.25982 10.4846C1.11419 10.6401 0.998902 10.8246 0.920591 11.0276C0.84228 11.2305 0.802488 11.4479 0.8035 11.6672V15.8105C0.804177 16.2519 0.96952 16.6749 1.2633 16.987C1.55708 17.2991 1.95533 17.4747 2.37079 17.4755H6.2711C6.47757 17.4765 6.6822 17.4343 6.87324 17.3511C7.06428 17.2679 7.23796 17.1454 7.38431 16.9907C7.53067 16.836 7.6468 16.6521 7.72604 16.4495C7.80529 16.247 7.84608 16.0298 7.84608 15.8105V11.6672C7.84709 11.4472 7.80705 11.2291 7.72826 11.0257C7.64947 10.8222 7.5335 10.6373 7.38705 10.4817C7.24059 10.3262 7.06656 10.203 6.87502 10.1193C6.68348 10.0356 6.47821 9.99302 6.2711 9.9941ZM7.0778 15.8105C7.0778 16.0352 6.99397 16.2506 6.84468 16.4097C6.69539 16.5688 6.49281 16.6586 6.28134 16.6593H2.37079C2.15888 16.6593 1.95565 16.5699 1.80581 16.4107C1.65596 16.2515 1.57178 16.0356 1.57178 15.8105V11.6672C1.57077 11.5551 1.59068 11.4438 1.63038 11.3399C1.67008 11.236 1.72878 11.1414 1.80307 11.0617C1.87737 10.982 1.96579 10.9188 2.06324 10.8756C2.16068 10.8325 2.26522 10.8102 2.37079 10.8102H6.2711C6.37732 10.8092 6.48268 10.8306 6.58102 10.8733C6.67936 10.9159 6.76869 10.979 6.84381 11.0588C6.91892 11.1386 6.9783 11.2335 7.01848 11.338C7.05866 11.4424 7.07882 11.5544 7.0778 11.6672V15.8105ZM14.4302 9.9941H10.3609C10.1648 9.99265 9.97038 10.0326 9.78893 10.1117C9.60749 10.1907 9.44264 10.3073 9.30396 10.4546C9.16529 10.6019 9.05555 10.7771 8.98113 10.9698C8.90671 11.1626 8.86909 11.3691 8.87045 11.5774V15.9003C8.87045 16.3176 9.02632 16.7178 9.30384 17.0131C9.58136 17.3085 9.95786 17.4747 10.3507 17.4755H14.4302C14.8233 17.4747 15.2001 17.3085 15.478 17.0133C15.7559 16.7181 15.9123 16.3178 15.913 15.9003V11.5774C15.914 11.3699 15.8764 11.1642 15.8024 10.9721C15.7283 10.7801 15.6192 10.6055 15.4815 10.4583C15.3437 10.3112 15.1799 10.1944 14.9995 10.1148C14.8191 10.0351 14.6256 9.9941 14.4302 9.9941ZM15.1447 15.9003C15.1447 16.1016 15.0695 16.2947 14.9355 16.437C14.8015 16.5793 14.6197 16.6593 14.4302 16.6593H10.3609C10.2664 16.6604 10.1727 16.6416 10.0851 16.6039C9.99755 16.5662 9.91788 16.5105 9.85071 16.4399C9.78355 16.3693 9.73023 16.2853 9.69385 16.1926C9.65746 16.1 9.63873 16.0007 9.63873 15.9003V11.5774C9.6377 11.4764 9.65568 11.3761 9.69161 11.2826C9.72754 11.189 9.7807 11.104 9.84796 11.0325C9.91523 10.9611 9.99525 10.9046 10.0833 10.8664C10.1714 10.8283 10.2658 10.8092 10.3609 10.8102H14.4302C14.6193 10.8102 14.8006 10.8898 14.9346 11.0316C15.0685 11.1734 15.1441 11.3657 15.1447 11.5665V15.9003Z" stroke="#FFFFFE" stroke-width="0.347522" mask="url(#path-1-outside-1_176_1440)"/>
</g>
<defs>
<clipPath id="clip0_176_1440">
<rect width="16.39" height="17.4111" fill="white" transform="translate(0.163269 0.744429)"/>
</clipPath>
</defs>
</svg>
