<svg xmlns="http://www.w3.org/2000/svg" version="1.1" xmlns:xlink="http://www.w3.org/1999/xlink" xmlns:svgjs="http://svgjs.com/svgjs" width="512" height="512" x="0" y="0" viewBox="0 0 340 340" style="enable-background:new 0 0 512 512" xml:space="preserve" class=""><g><g fill="#474756"><path d="M172.836 74.654a3.5 3.5 0 0 1-3.5-3.5V29.368A23.034 23.034 0 0 1 192.344 6.36a22.8 22.8 0 0 1 21.092 13.756 22.561 22.561 0 0 1-3.949 24.6 42.021 42.021 0 0 1-4.955 4.619 3.5 3.5 0 1 1-4.355-5.48 35.084 35.084 0 0 0 4.129-3.846 15.648 15.648 0 0 0 2.729-17.065 16.024 16.024 0 0 0-30.7 6.419v41.791a3.5 3.5 0 0 1-3.499 3.5zM141.4 163.387a3.5 3.5 0 0 1-3.257-4.78l28.7-73.17a3.5 3.5 0 0 1 6.517 2.557l-28.706 73.17a3.5 3.5 0 0 1-3.254 2.223z" fill="#474756" data-original="#474756"></path><path d="M199.447 149.106a3.5 3.5 0 0 1-3.242-2.181l-24.831-60.939a3.5 3.5 0 0 1 6.483-2.642l24.83 60.94a3.5 3.5 0 0 1-3.24 4.822z" fill="#474756" data-original="#474756"></path><rect width="27.133" height="15.562" x="159.269" y="78.935" rx="7.781" fill="#474756" data-original="#474756"></rect><rect width="27.133" height="15.562" x="159.269" y="63.373" rx="7.781" fill="#474756" data-original="#474756"></rect></g><path fill="#3e6869" d="M206.786 193.028s.127-.094.37-.259a23.086 23.086 0 0 1 34.669 11.448c4.375 12.163 14.448 30.506 36.175 35.272a1.8 1.8 0 0 0 1.827-2.864 34.189 34.189 0 0 1-5.98-13.352c-2.742-12.035-.126-22.818-3.086-32.109.002 0-18.828-31.887-63.975 1.864z" data-original="#3e6869"></path><path fill="#3e6869" d="M167.336 236.861s-19.724-67.5 31.121-105.2c0 0 14.667-10.185 40.071-12.1a33.591 33.591 0 0 0 11.786-3.013 25.377 25.377 0 0 0 6.826-4.572 1.8 1.8 0 0 1 3.054 1.6c-1.231 6.193-5.117 15.531-17.027 22.028-19.287 10.519-36.82 44.709-36.82 44.709l-7.89 56.544z" data-original="#3e6869"></path><path fill="#76a59d" d="M181.363 236.861s-9.069-74.954 45.873-81.529c26.4-3.16 38.3 15.547 43.527 35.832a26.486 26.486 0 0 0-2.122-1.894c-20.9-17.033-52.406-5.6-58.012 20.768a81.311 81.311 0 0 0-.775 26.823z" data-original="#76a59d"></path><path fill="#3e6869" d="M174.616 236.861s-14.723-55.321-66.663-55.321c-40.526 0-47.19 38.343-48.162 55.2a1.8 1.8 0 0 0 3.341 1.034c4.746-8.033 14.669-21.03 31.36-26.39 16.634-5.342 33.658 7.251 33.9 24.719v.763z" data-original="#3e6869"></path><path fill="#76a59d" d="M68.528 144.466c21.86 4.438 76.726 22.513 80.323 92.395h35.58s-1.275-120.726-115.9-95.922a1.8 1.8 0 0 0-.003 3.527z" data-original="#76a59d"></path><path fill="#aac3d6" d="M116.506 231.314s-10.666 29.941-5.846 68.063c4.593 36.328 46.767 34.24 46.767 34.24h21.791L138.3 231.314z" data-original="#aac3d6"></path><path fill="#e1ecfe" d="M220.139 231.314H138.3s-10.665 29.941-5.846 68.063c4.594 36.328 46.768 34.24 46.768 34.24s42.174 2.088 46.767-34.24c4.816-38.122-5.85-68.063-5.85-68.063z" data-original="#e1ecfe"></path></g></svg>