<svg width="19" height="19" viewBox="0 0 19 19" fill="none" xmlns="http://www.w3.org/2000/svg">
<path d="M8.42873 16.0912L5.99589 13.9074C5.07639 13.0773 4.28792 12.3366 3.63048 11.6853C2.97252 11.034 2.42976 10.421 2.0022 9.84627C1.57412 9.27158 1.26123 8.71605 1.06354 8.17967C0.865337 7.6433 0.766235 7.08138 0.766235 6.49392C0.766235 5.29347 1.16852 4.29402 1.97308 3.49559C2.77764 2.69767 3.78015 2.29871 4.98061 2.29871C5.64469 2.29871 6.27685 2.43919 6.87708 2.72014C7.47731 3.0011 7.99453 3.397 8.42873 3.90783C8.86294 3.397 9.38016 3.0011 9.98039 2.72014C10.5806 2.43919 11.2128 2.29871 11.8769 2.29871C12.9113 2.29871 13.7797 2.58911 14.4821 3.16993C15.1845 3.75126 15.6634 4.48252 15.9188 5.36371H14.2905C14.0607 4.85287 13.7222 4.46975 13.2753 4.21433C12.8283 3.95891 12.3622 3.83121 11.8769 3.83121C11.2255 3.83121 10.6636 4.00693 10.1911 4.35839C9.71859 4.70933 9.27799 5.17214 8.86933 5.74683H7.98814C7.59225 5.17214 7.1422 4.70933 6.63801 4.35839C6.13331 4.00693 5.58084 3.83121 4.98061 3.83121C4.25267 3.83121 3.62358 4.0833 3.09334 4.58749C2.5636 5.0922 2.29874 5.72767 2.29874 6.49392C2.29874 6.91536 2.38813 7.34318 2.56692 7.77739C2.74571 8.2116 3.06499 8.71298 3.52473 9.28154C3.98448 9.84959 4.61026 10.5134 5.40205 11.273C6.19384 12.0331 7.20273 12.9496 8.42873 14.0223C8.76078 13.7286 9.15029 13.3902 9.59727 13.007C10.0442 12.6239 10.4018 12.3047 10.67 12.0492L10.8424 12.2216L11.2156 12.5956L11.5895 12.9687L11.7619 13.1411C11.481 13.3966 11.1234 13.7125 10.6892 14.089C10.255 14.466 9.87184 14.8014 9.5398 15.0951L8.42873 16.0912ZM13.7925 13.0262V10.7275H11.4937V9.19496H13.7925V6.89621H15.325V9.19496H17.6237V10.7275H15.325V13.0262H13.7925Z" fill="#EBEFEE"/>
</svg>
