<svg width="22" height="22" viewBox="0 0 22 22" fill="none" xmlns="http://www.w3.org/2000/svg">
<path fill-rule="evenodd" clip-rule="evenodd" d="M10.186 0.74707C9.55402 0.74707 8.92822 0.871549 8.34434 1.1134C7.76046 1.35525 7.22993 1.70974 6.78305 2.15662C6.33617 2.6035 5.98169 3.13403 5.73983 3.71791C5.49798 4.30179 5.3735 4.92758 5.3735 5.55957C5.3735 6.19156 5.49798 6.81736 5.73983 7.40123C5.98169 7.98511 6.33617 8.51564 6.78305 8.96252C7.22993 9.4094 7.76046 9.76389 8.34434 10.0057C8.92822 10.2476 9.55402 10.3721 10.186 10.3721C11.4624 10.3721 12.6864 9.86504 13.589 8.96252C14.4915 8.06 14.9985 6.83592 14.9985 5.55957C14.9985 4.28322 14.4915 3.05914 13.589 2.15662C12.6864 1.2541 11.4624 0.74707 10.186 0.74707ZM18.0143 11.0825C17.5688 10.5783 16.9143 10.2575 16.1874 10.2575H14.4375C14.1175 10.2575 13.8006 10.3205 13.5049 10.443C13.2092 10.5655 12.9406 10.7451 12.7143 10.9714C12.4881 11.1978 12.3086 11.4665 12.1862 11.7622C12.0638 12.0579 12.0009 12.3749 12.001 12.6949V18.8164C12.001 19.4626 12.2577 20.0823 12.7146 20.5393C13.1716 20.9962 13.7913 21.2529 14.4375 21.2529H16.1865C16.9143 21.2529 17.5679 20.9321 18.0134 20.4279C18.1268 20.2903 18.1824 20.114 18.1683 19.9363C18.1542 19.7585 18.0715 19.5932 17.9378 19.4752C17.8041 19.3572 17.6298 19.2957 17.4517 19.3038C17.2735 19.3119 17.1055 19.3889 16.9831 19.5186C16.8835 19.6319 16.7608 19.7226 16.6233 19.7846C16.4857 19.8466 16.3365 19.8784 16.1856 19.8779H14.4375C13.8508 19.8779 13.376 19.4022 13.376 18.8164V12.6949C13.376 12.1082 13.8508 11.6325 14.4375 11.6325H16.1865C16.5037 11.6325 16.7869 11.7709 16.9831 11.9927C17.1047 12.126 17.2738 12.2062 17.454 12.2159C17.6342 12.2256 17.8109 12.1641 17.9462 12.0446C18.0814 11.9251 18.1642 11.7573 18.1768 11.5773C18.1894 11.3973 18.1307 11.2196 18.0134 11.0825H18.0143Z" fill="#E16162"/>
<path fill-rule="evenodd" clip-rule="evenodd" d="M20.6222 15.2689C20.751 15.3978 20.8233 15.5726 20.8233 15.7548C20.8233 15.937 20.751 16.1117 20.6222 16.2406L18.7889 18.0739C18.6593 18.1992 18.4857 18.2686 18.3054 18.2671C18.1252 18.2656 17.9527 18.1934 17.8252 18.066C17.6976 17.9386 17.6252 17.7662 17.6236 17.5859C17.6219 17.4057 17.6912 17.232 17.8163 17.1023L19.6497 15.2689C19.7786 15.1402 19.9533 15.0679 20.1355 15.0679C20.3177 15.0679 20.4933 15.1402 20.6222 15.2689Z" fill="#E16162"/>
<path fill-rule="evenodd" clip-rule="evenodd" d="M20.6222 16.2414C20.751 16.1125 20.8233 15.9377 20.8233 15.7555C20.8233 15.5734 20.751 15.3986 20.6222 15.2697L18.7889 13.4364C18.6593 13.3111 18.4857 13.2417 18.3054 13.2432C18.1252 13.2447 17.9527 13.3169 17.8252 13.4443C17.6976 13.5717 17.6252 13.7441 17.6236 13.9244C17.6219 14.1046 17.6912 14.2783 17.8163 14.408L19.6497 16.2414C19.7786 16.3701 19.9533 16.4424 20.1355 16.4424C20.3177 16.4424 20.4933 16.3701 20.6222 16.2414Z" fill="#E16162"/>
<path fill-rule="evenodd" clip-rule="evenodd" d="M14.4063 15.7556C14.4063 15.5733 14.4788 15.3984 14.6077 15.2695C14.7366 15.1405 14.9115 15.0681 15.0938 15.0681H19.6772C19.8595 15.0681 20.0344 15.1405 20.1633 15.2695C20.2922 15.3984 20.3647 15.5733 20.3647 15.7556C20.3647 15.938 20.2922 16.1128 20.1633 16.2418C20.0344 16.3707 19.8595 16.4431 19.6772 16.4431H15.0938C14.9115 16.4431 14.7366 16.3707 14.6077 16.2418C14.4788 16.1128 14.4063 15.938 14.4063 15.7556Z" fill="#E16162"/>
<path d="M10.6407 12.3659C10.6315 12.4749 10.6269 12.584 10.6269 12.6949V18.8164C10.6269 19.5003 10.8066 20.141 11.1219 20.6956H2.7711C2.34565 20.6956 1.93762 20.5266 1.63678 20.2258C1.33594 19.9249 1.16693 19.5169 1.16693 19.0914V15.7264C1.16693 15.1644 1.47676 14.6484 1.9736 14.3844C4.63761 12.9685 7.62524 12.273 10.6407 12.3668V12.3659Z" fill="#E16162"/>
</svg>
