<svg width="25" height="25" viewBox="0 0 25 25" fill="none" xmlns="http://www.w3.org/2000/svg">
<g clip-path="url(#clip0_176_2465)">
<mask id="mask0_176_2465" style="mask-type:luminance" maskUnits="userSpaceOnUse" x="0" y="0" width="25" height="25">
<path d="M0 7.24792e-05H24.9999V25H0V7.24792e-05Z" fill="white"/>
</mask>
<g mask="url(#mask0_176_2465)">
<path d="M8.01659 3.8399L11.0459 6.86924C12.9148 8.73813 13.9648 11.3706 13.9648 14.0137" stroke="#001E1D" stroke-width="1.5" stroke-miterlimit="10"/>
<path d="M4.93163 0.732492V1.94601C4.93163 3.82184 5.65438 5.62086 6.98079 6.94727C8.12488 8.09136 9.97985 8.09141 11.124 6.94727C12.2681 5.80318 12.2681 3.94821 11.124 2.80407C9.79758 1.47766 8.02097 0.732492 6.14515 0.732492H4.93163Z" stroke="#001E1D" stroke-width="1.5" stroke-miterlimit="10"/>
<path d="M22.998 0.732492V1.94601C22.998 3.82184 22.2752 5.62086 20.9488 6.94727C19.8047 8.09136 17.9498 8.09141 16.8056 6.94727C15.6615 5.80318 15.6615 3.94821 16.8056 2.80407C18.132 1.47766 19.9086 0.732492 21.7845 0.732492H22.998Z" stroke="#001E1D" stroke-width="1.5" stroke-miterlimit="10"/>
<path d="M19.913 3.8399L16.8837 6.86924C15.0148 8.73813 13.9648 11.3706 13.9648 14.0137" stroke="#001E1D" stroke-width="1.5" stroke-miterlimit="10"/>
<path d="M16.8462 20.0733C16.5959 18.7093 15.4011 17.6758 13.9648 17.6758L11.3841 17.6757C10.9073 17.6757 10.4398 17.5303 10.0451 17.2629C6.96331 15.175 6.52318 15.0685 3.71093 16.9433H0.732422V22.8027C8.05662 22.8027 8.86887 24.2675 13.0448 24.2675C16.3193 24.2675 18.1774 23.2828 20.885 21.4413L23.9834 19.334C23.09 17.9939 21.2723 17.645 19.9462 18.5591C18.0582 19.8605 15.703 20.6805 13.4109 20.6149C12.2393 20.5813 11.079 20.376 9.96716 20.0053L9.57029 19.873" stroke="#001E1D" stroke-width="1.5" stroke-miterlimit="10"/>
<path d="M9.08664 16.6261C10.137 15.0512 11.9297 14.0137 13.9648 14.0137C16.7798 14.0137 19.1799 15.9988 19.7442 18.6454" stroke="#001E1D" stroke-width="1.5" stroke-miterlimit="10"/>
</g>
</g>
<defs>
<clipPath id="clip0_176_2465">
<rect width="25" height="25" fill="white"/>
</clipPath>
</defs>
</svg>
