<svg width="30" height="28" viewBox="0 0 30 28" fill="none" xmlns="http://www.w3.org/2000/svg">
<path d="M15.0249 23.9512C12.1123 23.9512 9.19984 23.5196 6.43734 22.6562C5.38734 22.3179 4.58734 21.6296 4.23734 20.7312C3.87484 19.8329 3.99984 18.8412 4.57484 17.9546L6.01234 15.7262C6.31234 15.2596 6.58734 14.3262 6.58734 13.7779V10.4062C6.58734 6.06625 10.3748 2.53125 15.0249 2.53125C19.6749 2.53125 23.4624 6.06625 23.4624 10.4062V13.7779C23.4624 14.3146 23.7374 15.2596 24.0374 15.7379L25.4624 17.9546C25.9999 18.7946 26.0999 19.8096 25.7374 20.7312C25.3749 21.6529 24.5874 22.3529 23.5999 22.6562C20.8499 23.5196 17.9374 23.9512 15.0249 23.9512ZM15.0249 4.28125C11.4123 4.28125 8.46234 7.02292 8.46234 10.4062V13.7779C8.46234 14.6296 8.08734 15.8896 7.62484 16.6246L6.18734 18.8529C5.91234 19.2846 5.83734 19.7396 5.99984 20.1246C6.14984 20.5212 6.52484 20.8246 7.03734 20.9879C12.2623 22.6212 17.7999 22.6212 23.0249 20.9879C23.4749 20.8479 23.8249 20.5329 23.9874 20.1129C24.1499 19.6929 24.1124 19.2379 23.8624 18.8529L22.4249 16.6246C21.9499 15.8662 21.5874 14.6179 21.5874 13.7662V10.4062C21.5874 7.02292 18.6499 4.28125 15.0249 4.28125Z" fill="#3E503C"/>
<path d="M17.3495 4.59695C17.262 4.59695 17.1745 4.58529 17.087 4.56195C16.7245 4.46862 16.3745 4.39862 16.037 4.35195C14.9745 4.22362 13.9495 4.29362 12.987 4.56195C12.637 4.66695 12.262 4.56195 12.0245 4.31695C11.787 4.07195 11.712 3.72195 11.8495 3.40695C12.362 2.18195 13.612 1.37695 15.037 1.37695C16.462 1.37695 17.712 2.17029 18.2245 3.40695C18.3495 3.72195 18.287 4.07195 18.0495 4.31695C17.862 4.50362 17.5995 4.59695 17.3495 4.59695Z" fill="#3E503C"/>
<path d="M15.0244 26.6113C13.7869 26.6113 12.5869 26.1447 11.7119 25.328C10.8369 24.5113 10.3369 23.3913 10.3369 22.2363H12.2119C12.2119 22.9247 12.5119 23.6013 13.0369 24.0913C13.5619 24.5813 14.2869 24.8613 15.0244 24.8613C16.5744 24.8613 17.8369 23.683 17.8369 22.2363H19.7119C19.7119 24.6513 17.6119 26.6113 15.0244 26.6113Z" fill="#3E503C"/>
</svg>
