<svg width="20" height="20" viewBox="0 0 20 20" fill="none" xmlns="http://www.w3.org/2000/svg">
<g clip-path="url(#clip0_176_2483)">
<path d="M15.4827 7.22727H20V4.81277C20 4.00168 19.7219 3.20543 19.217 2.5707C18.712 1.93598 17.9987 1.48598 17.2084 1.30359H17.2084C15.6663 0.947735 13.8056 0.781954 11.3527 0.781954H8.6473C6.19441 0.781954 4.33371 0.947696 2.79164 1.30356C2.00129 1.48594 1.28797 1.93594 0.783008 2.57066C0.278086 3.20543 0 4.00164 0 4.81274V7.22723H4.5173V8.90133C4.51781 10.9305 3.99458 12.9255 2.99824 14.6933C1.84656 14.7208 0.917969 15.6655 0.917969 16.8237V19.218H19.082V16.8237C19.082 15.6655 18.1534 14.7208 17.0018 14.6933C16.0054 12.9256 15.4822 10.9306 15.4827 8.90137V7.22727H15.4827ZM17.9102 18.0462H2.08984V16.8237C2.08984 16.2945 2.52039 15.8639 3.04961 15.8639H16.9504C17.4796 15.8639 17.9102 16.2945 17.9102 16.8237V18.0462ZM5.68918 6.09723H14.3108V8.90137C14.3108 10.9193 14.7794 12.8982 15.6744 14.692H4.32555C5.22059 12.8981 5.68918 10.9192 5.68918 8.90137V6.09723ZM18.8281 4.81274V6.05535H15.4827V3.62793H14.3108V4.92535H5.6952V3.62793H4.52332L4.51727 6.05539H1.17188V4.81277C1.17188 3.67481 1.94629 2.70133 3.05512 2.44543C4.50848 2.11004 6.28543 1.95383 8.6473 1.95383H11.3527C13.7146 1.95383 15.4915 2.11004 16.9449 2.44543C18.0537 2.70129 18.8281 3.67477 18.8281 4.81274Z" fill="#5B8151"/>
<path d="M10 7.44211C8.34301 7.44211 6.99496 8.79016 6.99496 10.4471C6.99496 12.1041 8.34301 13.4521 10 13.4521C11.657 13.4521 13.005 12.1041 13.005 10.4471C13.005 8.79016 11.657 7.44211 10 7.44211ZM10 12.2803C8.98918 12.2803 8.16684 11.4579 8.16684 10.4471C8.16684 9.43633 8.98918 8.61399 10 8.61399C11.0108 8.61399 11.8332 9.43633 11.8332 10.4471C11.8332 11.4579 11.0108 12.2803 10 12.2803Z" fill="#5B8151"/>
</g>
<defs>
<clipPath id="clip0_176_2483">
<rect width="20" height="20" fill="white"/>
</clipPath>
</defs>
</svg>
