<svg width="25" height="25" viewBox="0 0 25 25" fill="none" xmlns="http://www.w3.org/2000/svg">
<path d="M21.9553 24.545L18.9221 12.4112C18.9022 12.332 18.8565 12.2616 18.7921 12.2114C18.7278 12.1611 18.6484 12.1338 18.5668 12.1338H16.4664C17.3466 10.6113 18.1174 8.92407 18.396 7.29263C18.4113 7.19736 18.3884 7.09992 18.3322 7.02146C18.2761 6.94301 18.1912 6.88988 18.0961 6.87363C18.001 6.85739 17.9033 6.87933 17.8243 6.93469C17.7453 6.99005 17.6913 7.07435 17.6741 7.16929C17.0533 10.8037 14.511 13.7013 12.4999 16.646C10.3455 13.4916 7.22205 10.0663 7.22205 6.01025C7.22205 3.10005 9.58968 0.732422 12.4999 0.732422C15.2717 0.732422 17.5847 2.89653 17.7658 5.65923C17.779 5.86108 17.9545 6.01343 18.1552 6.00068C18.2032 5.99754 18.2501 5.98498 18.2932 5.96371C18.3364 5.94244 18.3749 5.91288 18.4066 5.87672C18.4383 5.84056 18.4626 5.7985 18.4781 5.75296C18.4935 5.70742 18.4999 5.65927 18.4967 5.61128C18.2904 2.46479 15.6563 0 12.4999 0C9.18582 0 6.48963 2.69619 6.48963 6.01025C6.48963 8.03901 7.41868 10.214 8.52952 12.1338H6.43299C6.35132 12.1338 6.27199 12.1611 6.20762 12.2114C6.14325 12.2616 6.09752 12.332 6.07771 12.4112L5.52059 14.6392C5.49703 14.7334 5.51187 14.8332 5.56184 14.9164C5.61181 14.9997 5.69282 15.0597 5.78704 15.0833C5.9719 15.1275 6.11995 15.0387 6.23118 14.8168L6.71893 12.8662H8.96883C9.13256 13.1299 9.29999 13.3914 9.47107 13.6504H7.94959C7.86792 13.6504 7.78859 13.6777 7.72422 13.728C7.65985 13.7782 7.61412 13.8486 7.59432 13.9278L6.83606 16.9615C6.80652 17.2287 6.92493 17.3804 7.19134 17.4165H17.8085C18.0749 17.3804 18.1933 17.2287 18.1638 16.9615L17.4055 13.9278C17.3857 13.8486 17.34 13.7782 17.2756 13.728C17.2112 13.6777 17.1319 13.6504 17.0502 13.6504H15.5264C15.6972 13.3913 15.8643 13.1299 16.0277 12.8662H18.2808L21.131 24.2676H3.86878L5.84441 16.3652C5.86797 16.271 5.85313 16.1712 5.80315 16.0879C5.75318 16.0047 5.67217 15.9446 5.57793 15.9211C5.4837 15.8975 5.38397 15.9124 5.30069 15.9623C5.2174 16.0123 5.15737 16.0933 5.13382 16.1875L3.04446 24.545C3.01492 24.8122 3.13333 24.9639 3.39974 25H21.5999C21.8664 24.9639 21.9848 24.8122 21.9553 24.545ZM8.23553 14.3828H9.96653C10.5055 15.1615 11.0751 15.9169 11.6299 16.6841H7.66028L8.23553 14.3828ZM16.7642 14.3828L17.3394 16.6841H13.3699C13.9246 15.9171 14.4938 15.1618 15.032 14.3828H16.7642Z" fill="black"/>
<path d="M9.8586 6.43325C9.8586 7.88965 11.0435 9.07451 12.4999 9.07451C13.9563 9.07451 15.1412 7.88965 15.1412 6.43325C15.1412 4.97686 13.9563 3.79199 12.4999 3.79199C11.0435 3.79199 9.8586 4.97686 9.8586 6.43325ZM14.4088 6.43325C14.4088 7.48579 13.5525 8.34209 12.4999 8.34209C11.4473 8.34209 10.591 7.48579 10.591 6.43325C10.591 5.38071 11.4473 4.52441 12.4999 4.52441C13.5525 4.52441 14.4088 5.38071 14.4088 6.43325ZM5.67471 23.4833H11.7416C11.8387 23.4833 11.9318 23.4447 12.0005 23.376C12.0692 23.3074 12.1078 23.2142 12.1078 23.1171V18.5667C12.0868 18.3435 11.9647 18.2214 11.7416 18.2005L6.81226 18.2008C6.73059 18.2008 6.65126 18.2281 6.58689 18.2783C6.52252 18.3286 6.47679 18.3989 6.45698 18.4782L5.31944 23.0283C5.26519 23.2341 5.40464 23.4833 5.67471 23.4833ZM7.09815 18.9332L11.3753 18.9329V22.7509H6.1437L7.09815 18.9332ZM16.6059 23.1173C16.6059 23.2144 16.6444 23.3076 16.7131 23.3762C16.7818 23.4449 16.8749 23.4835 16.9721 23.4835H19.3251C19.5915 23.4474 19.71 23.2957 19.6804 23.0285L18.5427 18.4777C18.5229 18.3985 18.4771 18.3281 18.4128 18.2779C18.3484 18.2276 18.2691 18.2003 18.1874 18.2003H13.2582C13.1611 18.2003 13.0679 18.2389 12.9993 18.3076C12.9306 18.3762 12.892 18.4694 12.892 18.5665V23.1173C12.892 23.2144 12.9306 23.3076 12.9993 23.3762C13.0679 23.4449 13.1611 23.4835 13.2582 23.4835H15.3759C15.5782 23.4835 15.7421 23.3195 15.7421 23.1173C15.7421 22.915 15.5782 22.7511 15.3759 22.7511H13.6244V18.9327H17.9015L18.8561 22.7511H16.9721C16.8749 22.7511 16.7818 22.7897 16.7131 22.8583C16.6444 22.927 16.6059 23.0202 16.6059 23.1173Z" fill="black"/>
</svg>
