<svg width="25" height="25" viewBox="0 0 25 25" fill="none" xmlns="http://www.w3.org/2000/svg">
<g clip-path="url(#clip0_283_5406)">
<path d="M22.8488 4.46909L19.8083 1.42856C18.8871 0.507324 17.6623 0 16.3594 0H8.08013C7.12056 0 6.33984 0.780664 6.33984 1.74023V1.94092H6.13921C5.17964 1.94092 4.39893 2.72158 4.39893 3.68115V14.4682C2.26343 15.1917 0.722168 17.2153 0.722168 19.5923C0.722168 20.7181 1.06504 21.7976 1.71377 22.714C1.77047 22.7918 1.85551 22.8441 1.95048 22.8597C2.04546 22.8752 2.14274 22.8528 2.2213 22.7972C2.29986 22.7416 2.35337 22.6573 2.37027 22.5625C2.38718 22.4678 2.36611 22.3702 2.31162 22.2909C1.75098 21.4988 1.45464 20.5656 1.45464 19.5923C1.45464 17.0141 3.55195 14.9165 6.12993 14.9165C8.70815 14.9165 10.8057 17.0141 10.8057 19.5923C10.8057 22.1703 8.70815 24.2676 6.12993 24.2676C5.15654 24.2676 4.22344 23.9712 3.43135 23.4105C3.35205 23.3552 3.25407 23.3334 3.15879 23.35C3.06351 23.3667 2.97868 23.4203 2.9228 23.4992C2.86692 23.5782 2.84454 23.676 2.86054 23.7714C2.87654 23.8668 2.92963 23.952 3.0082 24.0084C3.92466 24.6571 5.0041 25 6.12993 25C7.69902 25 9.11392 24.3282 10.1027 23.2573H20.5967C21.5562 23.2573 22.337 22.4769 22.337 21.5176V21.3164H22.5376C23.4972 21.3164 24.2779 20.5357 24.2779 19.5762V7.91943C24.2779 6.6165 23.7704 5.39116 22.8488 4.46909ZM5.1314 14.2769V3.6812C5.1314 3.12549 5.58355 2.67339 6.13926 2.67339H6.33989V14.1886C6.26994 14.1858 6.19994 14.1843 6.12993 14.1842C5.78882 14.1841 5.45513 14.2162 5.1314 14.2769ZM21.6045 21.5176C21.6045 22.073 21.1524 22.5249 20.5967 22.5249H10.6717C10.9162 22.148 11.1125 21.742 11.2562 21.3164H21.6045V21.5176ZM23.5455 19.5762C23.5455 20.1319 23.0934 20.584 22.5376 20.584H11.4466C11.5075 20.2569 11.5382 19.925 11.5381 19.5923C11.5381 16.9316 9.60674 14.7136 7.07231 14.2665V1.74023C7.07231 1.18452 7.52446 0.732422 8.08018 0.732422H14.8307C16.5019 0.732422 17.8614 2.09248 17.8614 3.76416V5.07373C17.8614 5.81416 18.4638 6.4165 19.2041 6.4165H19.6592C19.8615 6.4165 20.0254 6.25254 20.0254 6.05029C20.0254 5.84805 19.8615 5.68408 19.6592 5.68408H19.2041C18.8676 5.68408 18.5938 5.4103 18.5938 5.07373V3.76416C18.5938 2.5668 18.0312 1.49897 17.1574 0.809082C17.9605 0.964893 18.6991 1.35513 19.2904 1.94644L22.3309 4.98691C22.9205 5.5769 23.3105 6.31309 23.4674 7.11343C22.9703 6.48398 22.2725 6.0126 21.4524 5.80205C21.2563 5.75166 21.0569 5.86978 21.0066 6.06567C20.9563 6.26157 21.0744 6.46118 21.2703 6.51143C22.6099 6.85537 23.5454 8.06265 23.5454 9.44824L23.5455 19.5762Z" fill="black"/>
<path d="M11.5314 8.20288H19.0866C19.2889 8.20288 19.4528 8.03892 19.4528 7.83667C19.4528 7.63442 19.2889 7.47046 19.0866 7.47046H11.5314C11.4343 7.47046 11.3411 7.50904 11.2724 7.57772C11.2038 7.6464 11.1652 7.73954 11.1652 7.83667C11.1652 7.9338 11.2038 8.02694 11.2724 8.09562C11.3411 8.1643 11.4343 8.20288 11.5314 8.20288ZM9.44741 10.2037H11.5211C11.7234 10.2037 11.8874 10.0397 11.8874 9.83745C11.8874 9.63521 11.7234 9.47124 11.5211 9.47124H9.44741C9.35029 9.47124 9.25714 9.50982 9.18846 9.5785C9.11978 9.64718 9.0812 9.74033 9.0812 9.83745C9.0812 9.93458 9.11978 10.0277 9.18846 10.0964C9.25714 10.1651 9.35029 10.2037 9.44741 10.2037ZM21.1706 9.47124H13.2301C13.0278 9.47124 12.8639 9.63521 12.8639 9.83745C12.8639 10.0397 13.0278 10.2037 13.2301 10.2037H21.1706C21.3729 10.2037 21.5368 10.0397 21.5368 9.83745C21.5368 9.63521 21.3729 9.47124 21.1706 9.47124ZM21.1705 11.0423H9.44751C9.24521 11.0423 9.0813 11.2063 9.0813 11.4085C9.0813 11.6108 9.24521 11.7748 9.44751 11.7748H21.1705C21.3728 11.7748 21.5367 11.6108 21.5367 11.4085C21.5367 11.2063 21.3728 11.0423 21.1705 11.0423ZM21.1705 12.6133H9.44751C9.24521 12.6133 9.0813 12.7772 9.0813 12.9795C9.0813 13.1817 9.24521 13.3457 9.44751 13.3457H21.1705C21.3728 13.3457 21.5367 13.1817 21.5367 12.9795C21.5367 12.7772 21.3728 12.6133 21.1705 12.6133ZM12.3757 14.1842H9.44751C9.24521 14.1842 9.0813 14.3482 9.0813 14.5504C9.0813 14.7527 9.24521 14.9167 9.44751 14.9167H12.3757C12.578 14.9167 12.7419 14.7527 12.7419 14.5504C12.7419 14.3482 12.578 14.1842 12.3757 14.1842ZM6.13022 23.5039C8.28716 23.5039 10.0419 21.7491 10.0419 19.5921C10.0419 17.4352 8.28716 15.6804 6.13022 15.6804C3.97329 15.6804 2.21851 17.4352 2.21851 19.5921C2.21851 21.7491 3.97329 23.5039 6.13022 23.5039ZM6.13022 16.4128C7.8833 16.4128 9.30952 17.8391 9.30952 19.5921C9.30952 21.3452 7.8833 22.7714 6.13022 22.7714C4.37715 22.7714 2.95093 21.3452 2.95093 19.5921C2.95093 17.8391 4.37715 16.4128 6.13022 16.4128Z" fill="black"/>
<path d="M6.13013 19.9583H7.84082C8.04312 19.9583 8.20703 19.7943 8.20703 19.5921C8.20703 19.3898 8.04312 19.2259 7.84082 19.2259H6.49634V17.4531C6.49634 17.2509 6.33242 17.0869 6.13013 17.0869C5.92783 17.0869 5.76392 17.2509 5.76392 17.4531V19.5921C5.76392 19.6892 5.8025 19.7824 5.87118 19.851C5.93985 19.9197 6.033 19.9583 6.13013 19.9583Z" fill="black"/>
</g>
<defs>
<clipPath id="clip0_283_5406">
<rect width="25" height="25" fill="white"/>
</clipPath>
</defs>
</svg>
