<svg width="25" height="25" viewBox="0 0 25 25" fill="none" xmlns="http://www.w3.org/2000/svg">
<g clip-path="url(#clip0_283_3697)">
<path d="M20.2151 7.26318C20.4847 7.26318 20.7034 7.04458 20.7034 6.7749V1.46484C20.7034 0.657129 20.0462 0 19.2385 0H1.46509C0.657373 0 0.000244141 0.657129 0.000244141 1.46484V23.5352C0.000244141 24.3429 0.657373 25 1.46509 25H19.2385C20.0462 25 20.7034 24.3429 20.7034 23.5352V19.9379C20.7034 19.6682 20.4847 19.4496 20.2151 19.4496C19.9455 19.4496 19.7268 19.6682 19.7268 19.9379V23.5352C19.7268 23.8044 19.5078 24.0234 19.2385 24.0234H1.46509C1.19585 24.0234 0.976807 23.8044 0.976807 23.5352V1.46484C0.976807 1.19561 1.19585 0.976562 1.46509 0.976562H19.2385C19.5078 0.976562 19.7268 1.19561 19.7268 1.46484V6.7749C19.7268 7.04458 19.9455 7.26318 20.2151 7.26318Z" fill="black"/>
<path d="M10.3518 2.63672C7.8748 2.63672 5.85962 4.6519 5.85962 7.12891C5.85962 8.41392 6.4021 9.57446 7.26987 10.394C7.28613 10.4114 7.30342 10.4278 7.32231 10.4428C8.12168 11.1742 9.1855 11.621 10.3518 11.621C11.518 11.621 12.5818 11.1742 13.3812 10.4428C13.3999 10.4279 13.4174 10.4115 13.4336 10.394C14.3015 9.57446 14.844 8.41392 14.844 7.12891C14.844 4.6519 12.8288 2.63672 10.3518 2.63672ZM10.3518 10.6445C9.55449 10.6445 8.81865 10.3773 8.22822 9.92832C8.65737 9.16733 9.4582 8.69141 10.3518 8.69141C11.2454 8.69141 12.0462 9.16733 12.4754 9.92832C11.8849 10.3773 11.1491 10.6445 10.3518 10.6445ZM9.57056 6.93359V6.61621C9.57056 6.18545 9.92104 5.83496 10.3518 5.83496C10.7826 5.83496 11.1331 6.18545 11.1331 6.61621V6.93359C11.1331 7.36436 10.7826 7.71484 10.3518 7.71484C9.92104 7.71484 9.57056 7.36436 9.57056 6.93359ZM13.1809 9.21304C12.8245 8.68357 12.3259 8.26555 11.7423 8.00713C11.9723 7.70991 12.1096 7.3376 12.1096 6.93359V6.61621C12.1096 5.64692 11.3211 4.8584 10.3518 4.8584C9.38252 4.8584 8.59399 5.64692 8.59399 6.61621V6.93359C8.59399 7.3376 8.73135 7.70991 8.96133 8.00713C8.37776 8.26555 7.87907 8.68357 7.52271 9.21304C7.0916 8.62939 6.83618 7.90855 6.83618 7.12891C6.83618 5.19038 8.41328 3.61328 10.3518 3.61328C12.2903 3.61328 13.8674 5.19038 13.8674 7.12891C13.8674 7.90855 13.612 8.62939 13.1809 9.21304ZM12.9885 21.3867H10.3518C10.0822 21.3867 9.86353 21.6053 9.86353 21.875C9.86353 22.1447 10.0822 22.3633 10.3518 22.3633H12.9885C13.2582 22.3633 13.4768 22.1447 13.4768 21.875C13.4768 21.6053 13.2582 21.3867 12.9885 21.3867ZM12.9885 18.6523H6.05493C5.7853 18.6523 5.56665 18.8709 5.56665 19.1406C5.56665 19.4103 5.7853 19.6289 6.05493 19.6289H12.9885C13.2582 19.6289 13.4768 19.4103 13.4768 19.1406C13.4768 18.8709 13.2582 18.6523 12.9885 18.6523ZM12.9885 15.918H6.05493C5.7853 15.918 5.56665 16.1366 5.56665 16.4062C5.56665 16.6759 5.7853 16.8945 6.05493 16.8945H12.9885C13.2582 16.8945 13.4768 16.6759 13.4768 16.4062C13.4768 16.1366 13.2582 15.918 12.9885 15.918ZM4.31465 13.3267C4.22276 13.2353 4.09855 13.1839 3.96899 13.1836C3.84053 13.1836 3.71455 13.2358 3.62378 13.3267C3.53296 13.4175 3.48071 13.5435 3.48071 13.6719C3.48071 13.8003 3.53291 13.9263 3.62378 14.0171C3.7156 14.1083 3.8396 14.1596 3.96899 14.1602C4.0979 14.1602 4.22339 14.1079 4.31465 14.0171C4.40547 13.9263 4.45776 13.8003 4.45776 13.6719C4.45776 13.5435 4.40552 13.4175 4.31465 13.3267ZM4.31465 16.061C4.22271 15.9698 4.09854 15.9184 3.96899 15.918C3.84053 15.918 3.71509 15.9702 3.62378 16.061C3.53296 16.1519 3.48071 16.2778 3.48071 16.4062C3.48071 16.5347 3.53291 16.6606 3.62378 16.7515C3.7156 16.8426 3.8396 16.894 3.96899 16.8945C4.0979 16.8945 4.22339 16.8423 4.31465 16.7515C4.40547 16.6606 4.45776 16.5347 4.45776 16.4062C4.45776 16.2778 4.40552 16.1519 4.31465 16.061ZM4.31465 18.7954C4.22271 18.7042 4.09854 18.6528 3.96899 18.6523C3.84053 18.6523 3.71509 18.7046 3.62378 18.7954C3.53296 18.8862 3.48071 19.0122 3.48071 19.1406C3.48071 19.269 3.53291 19.395 3.62378 19.4858C3.71555 19.5771 3.83958 19.6285 3.96899 19.6289C4.0979 19.6289 4.22388 19.5767 4.31465 19.4858C4.40547 19.395 4.45776 19.269 4.45776 19.1406C4.45776 19.0122 4.40552 18.8862 4.31465 18.7954ZM12.9885 13.1836H6.05493C5.7853 13.1836 5.56665 13.4022 5.56665 13.6719C5.56665 13.9416 5.7853 14.1602 6.05493 14.1602H12.9885C13.2582 14.1602 13.4768 13.9416 13.4768 13.6719C13.4768 13.4022 13.2582 13.1836 12.9885 13.1836ZM23.9746 6.36328C23.5002 6.0894 22.9476 6.01665 22.4184 6.1584C21.8893 6.3002 21.447 6.63955 21.1732 7.11392L15.0286 17.7566C14.9949 17.815 14.9737 17.8797 14.9662 17.9466L14.5336 21.8208C14.526 21.8891 14.5329 21.9582 14.5539 22.0236C14.5748 22.089 14.6092 22.1493 14.655 22.2005C14.7008 22.2517 14.7569 22.2927 14.8196 22.3207C14.8823 22.3488 14.9502 22.3633 15.0188 22.3633C15.1231 22.3634 15.2246 22.33 15.3084 22.2682L18.4473 19.9565C18.5016 19.9166 18.547 19.8658 18.5806 19.8075L24.7252 9.16475C25.2906 8.18545 24.9539 6.92871 23.9746 6.36328ZM15.628 20.82L15.8539 18.797L17.267 19.6129L15.628 20.82ZM17.9791 18.8963L16.1185 17.8221L21.0494 9.28154L22.91 10.3558L17.9791 18.8963ZM23.8795 8.67642L23.3982 9.51006L21.5376 8.43584L22.0189 7.6022C22.0891 7.47979 22.1829 7.37253 22.2949 7.28662C22.4068 7.20071 22.5347 7.13786 22.6711 7.10171C22.8074 7.0648 22.9495 7.05527 23.0895 7.0737C23.2294 7.09212 23.3643 7.13812 23.4863 7.20903C23.6087 7.27926 23.7159 7.37307 23.8019 7.48502C23.8878 7.59698 23.9506 7.72487 23.9868 7.86128C24.0237 7.99749 24.0332 8.13968 24.0148 8.27959C23.9964 8.41951 23.9504 8.55439 23.8795 8.67642Z" fill="black"/>
</g>
<defs>
<clipPath id="clip0_283_3697">
<rect width="25" height="25" fill="white"/>
</clipPath>
</defs>
</svg>
