<svg width="30" height="30" viewBox="0 0 30 30" fill="none" xmlns="http://www.w3.org/2000/svg">
<path d="M21.2242 16.3165H21.226L25.7207 16.2829C25.8954 16.2812 26.0365 16.14 26.0365 15.9653C26.0365 14.8253 25.5936 13.7541 24.7871 12.9477C23.9807 12.1412 22.9095 11.6982 21.7695 11.6982H21.2224C21.0477 11.6982 20.9048 11.8412 20.9048 12.0159V15.9988C20.9048 16.0835 20.9383 16.1647 20.9983 16.2247C21.0601 16.2829 21.1395 16.3165 21.2242 16.3165ZM21.5418 12.3335H21.7713C22.7418 12.3335 23.6524 12.7112 24.3389 13.3977C24.9495 14.0082 25.3165 14.7988 25.3889 15.6494L21.5418 15.6794V12.3335Z" fill="black"/>
<path d="M27.4765 19.4119H27.4677V15.9654C27.4677 14.4424 26.8747 13.013 25.7983 11.9366C24.7218 10.8601 23.2906 10.2671 21.7695 10.2671H20.1089V7.38186C20.1089 7.20715 19.9659 7.06421 19.7912 7.06421H5.44945C5.27474 7.06421 5.1318 7.20715 5.1318 7.38186V9.29656H1.87063C1.69592 9.29656 1.55298 9.4395 1.55298 9.61421C1.55298 9.78891 1.69592 9.93186 1.87063 9.93186H8.01004C8.18474 9.93186 8.32769 9.78891 8.32769 9.61421C8.32769 9.4395 8.18474 9.29656 8.01004 9.29656H5.7671V7.6995H19.4753V19.4119H12.5136C12.1306 18.4836 11.2165 17.8289 10.1506 17.8289C9.08474 17.8289 8.17063 18.4836 7.78768 19.4119H5.7671V16.5883H7.79827C7.97298 16.5883 8.11592 16.4454 8.11592 16.2707C8.11592 16.096 7.97298 15.953 7.79827 15.953H2.98063C2.80592 15.953 2.66298 16.096 2.66298 16.2707C2.66298 16.4454 2.80592 16.5883 2.98063 16.5883H5.1318V19.4119H5.12298C4.86357 19.4119 4.62004 19.5124 4.43651 19.696C4.25298 19.8795 4.15239 20.123 4.15239 20.3824C4.15239 20.9171 4.58827 21.353 5.12298 21.353H7.78768C8.17063 22.2813 9.08474 22.936 10.1506 22.936C11.2165 22.936 12.1306 22.2813 12.5136 21.353H21.1095C21.4924 22.2813 22.4065 22.936 23.4724 22.936C24.5383 22.936 25.4524 22.2813 25.8353 21.353H27.4783C27.7377 21.353 27.9812 21.2524 28.1647 21.0689C28.3483 20.8854 28.4489 20.6419 28.4489 20.3824C28.4471 19.846 28.0112 19.4119 27.4765 19.4119ZM20.1089 10.9024H21.7695C24.5612 10.9024 26.8324 13.1736 26.8324 15.9654V19.4119H25.8336C25.4506 18.4836 24.5365 17.8289 23.4706 17.8289C22.4047 17.8289 21.4906 18.4836 21.1077 19.4119H20.1089V10.9024ZM5.12298 20.7177C4.93768 20.7177 4.78768 20.5677 4.78768 20.3824C4.78768 20.2924 4.82298 20.2077 4.88651 20.1442C4.95004 20.0807 5.03298 20.0454 5.12298 20.0454H7.61827C7.60416 20.1548 7.5971 20.2677 7.5971 20.3807C7.5971 20.4936 7.60416 20.6066 7.61827 20.716H5.12298V20.7177ZM10.1506 22.3007C9.0918 22.3007 8.23063 21.4395 8.23063 20.3807C8.23063 19.3219 9.0918 18.4607 10.1506 18.4607C11.2095 18.4607 12.0706 19.3219 12.0706 20.3807C12.0706 21.4395 11.2095 22.3007 10.1506 22.3007ZM12.683 20.7177C12.6971 20.6083 12.7042 20.4954 12.7042 20.3824C12.7042 20.2695 12.6971 20.1566 12.683 20.0471H20.9383C20.9242 20.1566 20.9171 20.2695 20.9171 20.3824C20.9171 20.4954 20.9242 20.6083 20.9383 20.7177H12.683ZM23.4706 22.3007C22.4118 22.3007 21.5506 21.4395 21.5506 20.3807C21.5506 19.3219 22.4118 18.4607 23.4706 18.4607C24.5295 18.4607 25.3906 19.3219 25.3906 20.3807C25.3906 21.4395 24.5295 22.3007 23.4706 22.3007ZM27.713 20.6189C27.6495 20.6824 27.5647 20.7177 27.4765 20.7177H26.0047C26.0189 20.6083 26.0259 20.4954 26.0259 20.3824C26.0259 20.2695 26.0189 20.1566 26.0047 20.0471H27.4783C27.6636 20.0471 27.8136 20.1971 27.8136 20.3824C27.8118 20.4707 27.7765 20.5554 27.713 20.6189Z" fill="black"/>
<path d="M10.1506 19.3308C9.57004 19.3308 9.09886 19.8019 9.09886 20.3825C9.09886 20.9613 9.57004 21.4343 10.1506 21.4343C10.7312 21.4343 11.2024 20.9631 11.2024 20.3825C11.2024 19.8019 10.7295 19.3308 10.1506 19.3308ZM10.1506 20.7972C9.92122 20.7972 9.73416 20.6102 9.73416 20.3808C9.73416 20.1513 9.92122 19.9643 10.1506 19.9643C10.38 19.9643 10.5671 20.1513 10.5671 20.3808C10.5671 20.6119 10.38 20.7972 10.1506 20.7972ZM23.4706 19.3308C22.89 19.3308 22.4189 19.8019 22.4189 20.3825C22.4189 20.9613 22.89 21.4343 23.4706 21.4343C24.0512 21.4343 24.5224 20.9631 24.5224 20.3825C24.5224 19.8019 24.0512 19.3308 23.4706 19.3308ZM23.4706 20.7972C23.2412 20.7972 23.0542 20.6102 23.0542 20.3808C23.0542 20.1513 23.2412 19.9643 23.4706 19.9643C23.7 19.9643 23.8871 20.1513 23.8871 20.3808C23.8871 20.6119 23.7 20.7972 23.4706 20.7972ZM11.2483 9.93193C11.423 9.93193 11.5659 9.78898 11.5659 9.61428C11.5659 9.43957 11.423 9.29663 11.2483 9.29663H9.4271C9.25239 9.29663 9.10945 9.43957 9.10945 9.61428C9.10945 9.78898 9.25239 9.93193 9.4271 9.93193H11.2483ZM5.26945 11.5149H3.12357C2.94886 11.5149 2.80592 11.6578 2.80592 11.8325C2.80592 12.0072 2.94886 12.1502 3.12357 12.1502H5.26945C5.44416 12.1502 5.5871 12.0072 5.5871 11.8325C5.5871 11.6578 5.44416 11.5149 5.26945 11.5149ZM6.36886 11.8325C6.36886 12.0072 6.5118 12.1502 6.68651 12.1502H12.5012C12.6759 12.1502 12.8189 12.0072 12.8189 11.8325C12.8189 11.6578 12.6759 11.5149 12.5012 11.5149H6.68651C6.51004 11.5149 6.36886 11.6578 6.36886 11.8325ZM3.80651 14.0525C3.80651 13.8778 3.66357 13.7349 3.48886 13.7349H1.87063C1.69592 13.7349 1.55298 13.8778 1.55298 14.0525C1.55298 14.2272 1.69592 14.3702 1.87063 14.3702H3.48886C3.66357 14.3702 3.80651 14.2272 3.80651 14.0525ZM4.58651 14.0525C4.58651 14.2272 4.72945 14.3702 4.90416 14.3702H11.2465C11.4212 14.3702 11.5642 14.2272 11.5642 14.0525C11.5642 13.8778 11.4212 13.7349 11.2465 13.7349H4.90416C4.72945 13.7349 4.58651 13.876 4.58651 14.0525ZM9.21357 15.9531C9.03886 15.9531 8.89592 16.096 8.89592 16.2708C8.89592 16.4455 9.03886 16.5884 9.21357 16.5884H12.3565C12.5312 16.5884 12.6742 16.4455 12.6742 16.2708C12.6742 16.096 12.5312 15.9531 12.3565 15.9531H9.21357Z" fill="black"/>
</svg>
