<svg width="25" height="25" viewBox="0 0 25 25" fill="none" xmlns="http://www.w3.org/2000/svg">
<g clip-path="url(#clip0_176_2459)">
<path d="M19.8203 8.86916C17.7006 6.52808 16.441 4.46723 15.7574 3.15058C15.0171 1.72447 14.7745 0.840146 14.7727 0.833109L14.5523 0L13.7653 0.351042C13.6733 0.392045 11.4988 1.38369 10.2804 3.82046C9.66879 5.04376 9.54647 6.40575 9.5516 7.33284C9.55458 7.87238 9.17231 8.34086 8.64269 8.44676C8.46015 8.48343 8.27138 8.47438 8.09319 8.42042C7.915 8.36647 7.75291 8.26927 7.62138 8.13751L6.15539 6.67151L5.65108 7.3669C5.59874 7.43909 4.36631 9.13878 4.14194 9.47839C3.0463 11.1369 2.47499 13.069 2.4898 15.0656C2.50964 17.7323 3.55832 20.2306 5.44265 22.1005C7.32688 23.9703 9.83324 25 12.5001 25C18.0198 25 22.5105 20.5093 22.5105 14.9896C22.5105 12.9882 21.5299 10.7574 19.8203 8.86916ZM12.5001 23.5339C10.2227 23.5339 8.08316 22.6553 6.47545 21.0598C4.86768 19.4644 3.97294 17.3317 3.95598 15.0547C3.94328 13.3502 4.43062 11.7013 5.36529 10.2866C5.4794 10.1139 5.93718 9.47521 6.33455 8.92409L6.58472 9.17426C6.88675 9.47698 7.259 9.70024 7.66828 9.82416C8.07755 9.94808 8.51112 9.96879 8.93035 9.88446C10.1467 9.64118 11.0246 8.56474 11.0178 7.32483C11.0135 6.5575 11.1097 5.44045 11.5918 4.47612C12.1787 3.30248 13.056 2.53544 13.6656 2.10889C14.2169 3.5113 15.6146 6.40864 18.7335 9.85328C19.4283 10.6207 21.0444 12.6573 21.0444 14.9896C21.0444 19.7009 17.2114 23.5339 12.5001 23.5339Z" fill="#001E1D"/>
<path d="M13.9858 12.4379L9.389 19.1696H11.0142L15.611 12.4379H13.9858ZM14.9667 15.5153C13.9474 15.5153 13.178 16.198 13.178 17.3905C13.178 18.5926 13.9473 19.2658 14.9667 19.2658C15.9861 19.2658 16.7555 18.5926 16.7555 17.3905C16.7555 16.198 15.9861 15.5153 14.9667 15.5153ZM14.9667 18.2272C14.7552 18.2272 14.5436 18.0348 14.5436 17.3905C14.5436 16.7462 14.7552 16.5538 14.9667 16.5538C15.1783 16.5538 15.3899 16.7462 15.3899 17.3905C15.3899 18.0348 15.1783 18.2272 14.9667 18.2272ZM11.8221 14.217C11.8221 13.0245 11.0527 12.3418 10.0333 12.3418C9.01391 12.3418 8.24458 13.0245 8.24458 14.217C8.24458 15.4191 9.01391 16.0923 10.0333 16.0923C11.0527 16.0923 11.8221 15.4191 11.8221 14.217ZM9.61019 14.217C9.61019 13.5727 9.82176 13.3803 10.0333 13.3803C10.2449 13.3803 10.4564 13.5727 10.4564 14.217C10.4564 14.8613 10.2449 15.0537 10.0333 15.0537C9.82176 15.0537 9.61019 14.8613 9.61019 14.217Z" fill="#001E1D"/>
</g>
<defs>
<clipPath id="clip0_176_2459">
<rect width="25" height="25" fill="white"/>
</clipPath>
</defs>
</svg>
