<svg width="18" height="19" viewBox="0 0 18 19" fill="none" xmlns="http://www.w3.org/2000/svg">
<path d="M13.3974 12.888L16.5204 16.0302L15.4887 17.0685L12.3664 13.9256C11.2046 14.8628 9.75959 15.3726 8.27062 15.3705C4.64812 15.3705 1.70811 12.4118 1.70811 8.7662C1.70811 5.12065 4.64812 2.16194 8.27062 2.16194C11.8931 2.16194 14.8331 5.12065 14.8331 8.7662C14.8353 10.2646 14.3287 11.7188 13.3974 12.888ZM11.9347 12.3435C12.8601 11.3858 13.3769 10.102 13.3748 8.7662C13.3748 5.92783 11.0903 3.62955 8.27062 3.62955C5.4502 3.62955 3.16645 5.92783 3.16645 8.7662C3.16645 11.6038 5.4502 13.9028 8.27062 13.9028C9.59802 13.905 10.8737 13.3849 11.8253 12.4536L11.9347 12.3435Z" fill="#FFFFFE"/>
</svg>
