<svg width="25" height="23" viewBox="0 0 25 23" fill="none" xmlns="http://www.w3.org/2000/svg">
<path d="M7.27852 19.7275C6.58057 19.7275 6.0127 20.2954 6.0127 20.9934C6.0127 21.6914 6.58057 22.2592 7.27852 22.2592C7.97646 22.2592 8.54434 21.6913 8.54434 20.9934C8.54434 20.2954 7.97651 19.7275 7.27852 19.7275ZM18.038 19.7275C17.34 19.7275 16.7722 20.2954 16.7722 20.9934C16.7722 21.6914 17.3401 22.2592 18.038 22.2592C18.736 22.2592 19.3039 21.6913 19.3039 20.9934C19.3039 20.2954 18.736 19.7275 18.038 19.7275Z" fill="#3E503C"/>
<path d="M4.74683 3.90478V3.58833C4.74683 2.01787 3.46919 0.740234 1.89873 0.740234H0V2.63896H1.89873C2.42222 2.63896 2.8481 3.06484 2.8481 3.58833V16.8795C2.8481 18.45 4.12573 19.7276 5.69619 19.7276H21.5189V17.8288H5.69619C5.17271 17.8288 4.74683 17.4029 4.74683 16.8794V15.9301H17.7215C19.7514 15.9301 21.6267 14.7183 23.0019 12.5179C24.2903 10.4563 25 7.73462 25 4.85415V3.90478H4.74683ZM21.3917 11.5115C20.3762 13.1365 19.0728 14.0313 17.7215 14.0313H4.74683V5.80352H23.0725C22.9401 7.971 22.3549 9.97051 21.3917 11.5115Z" fill="#3E503C"/>
</svg>
