<svg width="16" height="17" viewBox="0 0 16 17" fill="none" xmlns="http://www.w3.org/2000/svg">
<path d="M5.16808 16.0326C4.74653 16.0326 4.38578 15.8852 4.08584 15.5904C3.78539 15.2951 3.63517 14.9403 3.63517 14.526C3.63517 14.1117 3.78539 13.757 4.08584 13.4617C4.38578 13.1669 4.74653 13.0195 5.16808 13.0195C5.58963 13.0195 5.95038 13.1669 6.25032 13.4617C6.55077 13.757 6.701 14.1117 6.701 14.526C6.701 14.9403 6.55077 15.2951 6.25032 15.5904C5.95038 15.8852 5.58963 16.0326 5.16808 16.0326ZM12.8327 16.0326C12.4111 16.0326 12.0504 15.8852 11.7504 15.5904C11.45 15.2951 11.2997 14.9403 11.2997 14.526C11.2997 14.1117 11.45 13.757 11.7504 13.4617C12.0504 13.1669 12.4111 13.0195 12.8327 13.0195C13.2542 13.0195 13.6152 13.1669 13.9157 13.4617C14.2156 13.757 14.3656 14.1117 14.3656 14.526C14.3656 14.9403 14.2156 15.2951 13.9157 15.5904C13.6152 15.8852 13.2542 16.0326 12.8327 16.0326ZM4.51659 3.98044L6.35609 7.74672H11.7213L13.8291 3.98044H4.51659ZM3.78846 2.47392H15.0937C15.3875 2.47392 15.6111 2.60248 15.7644 2.85959C15.9177 3.1172 15.924 3.37783 15.7835 3.64147L13.0626 8.46232C12.9221 8.7134 12.7335 8.908 12.4969 9.04609C12.2609 9.18419 12.0023 9.25324 11.7213 9.25324H6.01119L5.16808 10.7598H14.3656V12.2663H5.16808C4.59324 12.2663 4.15891 12.0182 3.8651 11.522C3.5713 11.0264 3.55852 10.5338 3.82678 10.0442L4.8615 8.19868L2.10225 2.47392H0.569336V0.967407H3.06032L3.78846 2.47392Z" fill="#EBEFEE"/>
</svg>
