<svg width="25" height="20" viewBox="0 0 25 20" fill="none" xmlns="http://www.w3.org/2000/svg">
<path d="M4.74683 3.90509V3.58863C4.74683 2.01818 3.46919 0.74054 1.89873 0.74054H0V2.63927H1.89873C2.42222 2.63927 2.8481 3.06515 2.8481 3.58863V16.8798C2.8481 18.4503 4.12573 19.7279 5.69619 19.7279H21.5189V17.8291H5.69619C5.1727 17.8291 4.74683 17.4032 4.74683 16.8797V15.9304H17.7215C19.7514 15.9304 21.6267 14.7186 23.0019 12.5182C24.2903 10.4567 25 7.73492 25 4.85446V3.90509H4.74683ZM21.3917 11.5118C20.3762 13.1368 19.0728 14.0317 17.7215 14.0317H4.74683V5.80382H23.0725C22.9401 7.9713 22.3549 9.97081 21.3917 11.5118Z" fill="#3E503C"/>
</svg>
