<svg width="20" height="19" viewBox="0 0 20 19" fill="none" xmlns="http://www.w3.org/2000/svg">
<path d="M6.16808 17.0324C5.74653 17.0324 5.38578 16.885 5.08584 16.5903C4.78539 16.295 4.63517 15.9402 4.63517 15.5259C4.63517 15.1116 4.78539 14.7568 5.08584 14.4616C5.38578 14.1668 5.74653 14.0194 6.16808 14.0194C6.58963 14.0194 6.95038 14.1668 7.25032 14.4616C7.55077 14.7568 7.701 15.1116 7.701 15.5259C7.701 15.9402 7.55077 16.295 7.25032 16.5903C6.95038 16.885 6.58963 17.0324 6.16808 17.0324ZM13.8327 17.0324C13.4111 17.0324 13.0504 16.885 12.7504 16.5903C12.45 16.295 12.2997 15.9402 12.2997 15.5259C12.2997 15.1116 12.45 14.7568 12.7504 14.4616C13.0504 14.1668 13.4111 14.0194 13.8327 14.0194C14.2542 14.0194 14.6152 14.1668 14.9157 14.4616C15.2156 14.7568 15.3656 15.1116 15.3656 15.5259C15.3656 15.9402 15.2156 16.295 14.9157 16.5903C14.6152 16.885 14.2542 17.0324 13.8327 17.0324ZM5.51659 4.98031L7.35609 8.7466H12.7213L14.8291 4.98031H5.51659ZM4.78846 3.4738H16.0937C16.3875 3.4738 16.6111 3.60236 16.7644 3.85947C16.9177 4.11708 16.924 4.37771 16.7835 4.64135L14.0626 9.4622C13.9221 9.71328 13.7335 9.90787 13.4969 10.046C13.2609 10.1841 13.0023 10.2531 12.7213 10.2531H7.01119L6.16808 11.7596H15.3656V13.2661H6.16808C5.59324 13.2661 5.15891 13.0181 4.8651 12.5219C4.5713 12.0263 4.55852 11.5337 4.82678 11.044L5.8615 9.19856L3.10225 3.4738H1.56934V1.96729H4.06032L4.78846 3.4738Z" fill="#EBEFEE"/>
</svg>
